<svg id="Layer_1" data-name="Layer 1" xmlns="http://www.w3.org/2000/svg" viewBox="0 0 1000 1000"><defs><style>.cls-1{fill:#ff8787;}.cls-2{fill:#5cd6ff;}.cls-3{fill:#ff7070;}.cls-4{fill:#ffc926;}.cls-5{fill:#ffcf40;}.cls-6{fill:#7af6ff;}.cls-7{fill:#95a5ff;}.cls-8{fill:#ffd89c;}.cls-9{fill:#788cff;}.cls-10{fill:#ffce82;}.cls-11{fill:#005c4c;}.cls-12{fill:#fff;}.cls-13{fill:#959cff;}.cls-14{fill:#233940;}.cls-15{fill:#ffb195;}</style></defs><title>Parrot Pet Bird</title><path class="cls-1" d="M934.37,841.05a184.88,184.88,0,0,1-40.61,29.22,200,200,0,0,1-23.7,10.66c-3.19,1.17-4.53-3.9-1.4-5.08l.16-.05c-.07-.12-.14-.26-.21-.4q-1.1-2.73-2.15-5.46-3.83-9.87-7.23-19.85c-.37-1.07-.74-2.15-1.09-3.22q-1.39-4.12-2.69-8.24t-2.57-8.28q-1.23-4.15-2.45-8.31c-1.19-4.15-2.35-8.33-3.47-12.52-.63-2.31-1.23-4.64-1.82-6.95-1.77-6.95-3.43-13.92-5-20.9,0,0,0,0,0,0a2.86,2.86,0,0,1-4.94-.65,236.72,236.72,0,0,1-14-98.11,2.62,2.62,0,0,1,5.13-.7,171.3,171.3,0,0,0,19,41.24,175.55,175.55,0,0,0,23.19,29.23,155.3,155.3,0,0,0,24.72,20.22c9.43,6.35,19.43,11.94,29.77,17.57,4.15,2.26,8.24,4.59,12.36,6.9C958.28,810.33,950.63,825.77,934.37,841.05Z"/><path class="cls-2" d="M871.51,507.24C871.51,706.5,760.27,741.5,528.59,828l-8.1,3q-11.08,4.15-21.65,7.53-9.85,3.15-19.25,5.65C230.33,910.65,210.27,643.41,269.73,466.09,333.83,275,264.16,92,465.73,92S871.51,305.68,871.51,507.24Z"/><path class="cls-3" d="M893.76,870.27a200,200,0,0,1-23.7,10.66c-3.19,1.17-4.53-3.9-1.4-5.08l.16-.05c-.07-.12-.14-.26-.21-.4q-1.1-2.73-2.15-5.46-3.83-9.87-7.23-19.85c-.37-1.07-.74-2.15-1.09-3.22q-1.39-4.12-2.69-8.24t-2.57-8.28q-1.23-4.15-2.45-8.31c-1.19-4.15-2.35-8.33-3.47-12.52-.63-2.31-1.23-4.64-1.82-6.95q-2.68-10.4-5.06-20.87c-.4-1.73-.81-3.47-1.19-5.2-.16-.63-.3-1.26-.42-1.87q-1.73-7.88-3.36-15.77c-.58-2.84-1.16-5.67-1.72-8.51s-1.12-5.67-1.66-8.51l.05.05c5.25,4.88,9.24-8.23,13.5-18.41a175.55,175.55,0,0,0,23.19,29.23,155.3,155.3,0,0,0,24.72,20.22C895,803.68,894.9,847.77,893.76,870.27Z"/><path class="cls-4" d="M621.34,657c.86,1.72-.18,4.17-2.19,3.9l-.63.95c-1.94,2.75-6.49.12-4.53-2.64l.17-.28c-10.82-4.76-21.37-11.61-25.54-23.19-4.62-12.83,5.34-20.71,17.56-17a2.45,2.45,0,0,1,1.45,1.1,2.27,2.27,0,0,1,3.2,1.72c1.1,6.21,3.66,10.4,7.39,15.35a25.71,25.71,0,0,1,4.1,6.77A17.21,17.21,0,0,1,621.34,657Z"/><path class="cls-4" d="M533.82,587c.86,1.72-.18,4.17-2.19,3.9l-.63.95c-1.94,2.75-6.49.12-4.53-2.64l.17-.28c-10.82-4.76-21.37-11.61-25.54-23.19-4.62-12.83,5.34-20.71,17.56-17a2.45,2.45,0,0,1,1.45,1.1,2.27,2.27,0,0,1,3.2,1.72c1.1,6.21,3.66,10.4,7.39,15.35a25.71,25.71,0,0,1,4.1,6.77A17.21,17.21,0,0,1,533.82,587Z"/><path class="cls-1" d="M497.71,430.47c-3.54,3-9.89,3.06-15.53,3.24-.95,0-1.86.07-2.73.12a86.94,86.94,0,0,0-28.83,7q-4.54,1.92-8.89,4.18c-14.37,7.42-27.38,17.43-39.79,27.74-.82.7-1.66,1.38-2.49,2.08l-4.54,3.82c-8.38,7-17,14.13-25.94,20.51-16.91,12.06-35.08,21.58-55.53,23.26-37.13,3-70.45-20.73-98.2-45.6-3.61-3.26-7-6.56-10.5-9.87v0c-6.11-5.5-12.25-11-18.5-16.37-13.34-11.34-27.2-21.85-42.54-29.18a109.2,109.2,0,0,0-19.66-7.26c-5.81-1.51-12-1.44-18-3.19h0a28.42,28.42,0,0,1-19.33-8.07,27.14,27.14,0,0,1-2.31-2.4c-6.09-6.9-9.54-16.17-13.15-24.14-2.78-6.13-5.6-12.32-8.89-18.24A73.81,73.81,0,0,0,50.66,342a72.54,72.54,0,0,0-5.72-5.62,16.82,16.82,0,0,0-1.87-1.35c-.86-.53-5.5-2.43-5.6-2.43L37,332c-3.43-3.82-12.06-13.5-11-19.15,2.26-12.43,34.12-18.41,44-20.06,30.86-5.11,62.42-1.59,93.7-2.19,38.53-.7,77.12-7.81,112.83-22.11q10.42-4.17,20.5-9.17c17.68-8.79,34.52-19.52,53.16-26a100.73,100.73,0,0,1,17.66-4.45c13.69-2.12,27.74-1.05,39.93,5.25,21.71,11.2,32.42,35.73,41.5,58.41,0,4.18,4.34,10.85,5.94,14.79q3.49,8.74,7,17.49,7,17.49,14,35c7.91,19.74,20.18,39.61,24,60.69C501.09,425.52,500,428.58,497.71,430.47Z"/><path class="cls-5" d="M933.25,612.06c-32.31,31.65-79,49.94-123.58,35-39.89-13.39-67.41-53.95-57.94-96a307.89,307.89,0,0,1-29.06-24.37c-2.47-2.33,1.26-6,3.71-3.71a305.06,305.06,0,0,0,28.83,24.14,2.69,2.69,0,0,1,1.87,1.37A310.28,310.28,0,0,0,931.4,607.58,2.65,2.65,0,0,1,933.25,612.06Z"/><path class="cls-3" d="M486.35,419.58a36.15,36.15,0,0,1-4.17,14.13c-.95,0-1.86.07-2.73.12a86.94,86.94,0,0,0-28.83,7q-4.54,1.92-8.89,4.18c.28-3,.51-6,.63-8.93.49-.53,1-1.09,1.45-1.65,8.8-10.47,13.08-26.08,7.16-39-6.22-13.55-21.79-19.67-35.95-19.55l0,0c-4.92,5.79-11.82,9.33-19,12.39-11.68,4.94-23.58,9.59-35.62,13.58-25.71,8.54-53,12.88-79.56,5.64-3.08-.84-2.07-4.83.7-5.16a210.11,210.11,0,0,0,50-12.33c11.5-4.39,13.44-19.69,3.74-27.26q-1.23-1-2.44-2l-.18-.15a32.14,32.14,0,0,0-35.88-3.93,245.45,245.45,0,0,1-173.92,23c-3.31-.81-1.89-5.79,1.4-5.06,54.16,12,112-3.72,153.44-39.66a33.48,33.48,0,0,0,8-40l-.1-.21a106.28,106.28,0,0,1-9.1-26.33q10.42-4.17,20.5-9.17c17.68-8.79,34.52-19.52,53.16-26a100.73,100.73,0,0,1,17.66-4.45c21,8.77,40.85,21.22,55.93,38.47,17.4,19.88,26.9,44.81,36.44,69.07Q469.05,359.25,478,382C482.67,394,487.45,406.49,486.35,419.58Z"/><path class="cls-6" d="M443.81,434.46c-.47.56-1,1.12-1.45,1.65-10.87,11.8-27.06,17.4-42.31,20.92q-6.67,1.55-13.43,2.59A206.62,206.62,0,0,1,299,454.17c-32.33-9.08-62.74-27.43-88.15-49.2-1.44-1.24-2.59-3.22-1.89-5s-9.25-4.66-6.71-4.83c3.92-.3,20.89,2.82,23,3.29,6.6,1.47,13.3,2.63,20,3.55a260.64,260.64,0,0,0,39.09,2.43,256,256,0,0,0,77.11-12.92c8.05-2.68,16.09-6.18,24.23-9.17,9.84-3.64,19.87-6.55,30.37-6.41,13.88.17,28.87,6.32,34.94,19.55C456.89,408.38,452.62,424,443.81,434.46Z"/><path class="cls-3" d="M198.22,405.75a191.87,191.87,0,0,0-54.51,15.67,109.2,109.2,0,0,0-19.66-7.26c-5.81-1.51-12-1.44-18-3.19h0a28.42,28.42,0,0,1-19.33-8.07,27.14,27.14,0,0,1-2.31-2.4c36.71-10.78,84.45-15,121.8-5.1,1,.26-7.18,4.42-7,5.17C201.52,401.24,201.15,405.37,198.22,405.75Z"/><path class="cls-2" d="M443.81,434.46c-.47.56-1,1.12-1.45,1.65.35-9.31-.33-18.59-3.57-27.38-6-16.24-18.47-25.22-35.66-25.87-6-.23-11.75-.21-17.47-.51,9.84-3.64,19.87-6.55,30.37-6.41,13.88.17,28.87,6.32,34.94,19.55C456.89,408.38,452.62,424,443.81,434.46Z"/><path class="cls-5" d="M295.18,321.52c-32.09,29.69-71.94,51.78-115.06,59-40.33,6.7-83.44-.35-117.79-22.3A73.86,73.86,0,0,0,50.65,342a72.37,72.37,0,0,0-5.72-5.62c22-7,58.81-8.75,79.49-6.74,22.44,2.19,44.72,6.56,67.27,6.51C226.56,336.14,260.52,325.55,295.18,321.52Z"/><path class="cls-3" d="M394.92,478.68c-24.23,20.3-51.58,38.82-82.84,41.4-37.13,3-69.08-18.34-96.83-43.22-3.61-3.26-7-6.56-10.5-9.87v0c-6.11-5.5-12.25-11-18.5-16.37a175,175,0,0,1-11.41-44.5,1.93,1.93,0,0,1,1.31-2.38,2.33,2.33,0,0,1,2.36-2.15,2.55,2.55,0,0,1,2.4-2.1c24.28-1.54,10.7-7.91,33.45-2.26-2.54.18-4.66.93-5.39,2.78s.45,3.73,1.89,5c25.42,21.78,55.82,40.12,88.15,49.2a206.62,206.62,0,0,0,87.61,5.44c5,4.38,7.89,10,8.28,18.54C394.9,478.33,394.92,478.5,394.92,478.68Z"/><path class="cls-2" d="M386.63,459.61A206.62,206.62,0,0,1,299,454.17c-32.33-9.08-62.74-27.43-88.15-49.2-1.44-1.24-2.59-3.22-1.89-5s2.85-2.61,5.39-2.78c.19,0,.4.09.59.14,10.1,2.52,39.75,12.66,49.36,16.66,10.52,4.41,33.68,20.27,44.44,24.07,18.75,6.58,44.67,5,63.09,13C377.8,453.63,382.81,456.25,386.63,459.61Z"/><path class="cls-7" d="M873.32,885.34l-.33-.26c-14.65-11.22-15.33-44-21.22-60.62a411.17,411.17,0,0,0-33.15-71.24c-27.22-46.4-62.23-85.86-103.15-127.41-15-15.23-31.1-29-47.1-43.1a150.9,150.9,0,0,1-12.23-11.92,82.08,82.08,0,0,1-10.43-14,57,57,0,0,1-5.39-12.29,48,48,0,0,1-1.73-8.19,36.08,36.08,0,0,1,5.25-23.77c9.19-14.77,28.34-22.69,45.51-15.91.42-2.5.84-5,1.26-7.49.56-3.33,5.62-1.82,5.08,1.49-.14.86-.3,1.91-.44,2.78.44-.31,1-.16,1.5-.16h.54c.65-1.75,2-2.14,3.41-1.17a386.23,386.23,0,0,1,78.84,72q10.37,12.58,19.66,26a395.6,395.6,0,0,1,29.6,49.91q7.17,14.36,13.16,29.3C858.14,709.59,861.4,749,865.61,791.9c2.66,27.13,8.16,53.7,11.32,80.78C877.52,877.6,877.34,882.24,873.32,885.34Z"/><path class="cls-8" d="M673.87,700.74a22.71,22.71,0,0,1-15.77,21.6l-13.29,4.22a22.49,22.49,0,0,1-14.55-.26,22.2,22.2,0,0,1-6.6-3.71l-56-45.28-39.12-31.67V828l-8.1,3q-6.46,2.42-12.73,4.55c-3,1.05-6,2-8.93,3-3.83,1.23-7.63,2.38-11.36,3.47-2.66.75-5.29,1.49-7.89,2.19v-238l-5.41-4.38-67.53-54.68c-11.25-12.12-7.86-23.42-1.68-31.67,6.61-8.82,19.27-10.36,28.14-3.82l121.71,89.77,69.46,51.22,38,28,2.38,1.75a22.6,22.6,0,0,1,9.22,18.24Z"/><path class="cls-9" d="M695.23,552.51A8,8,0,0,0,681.48,557a34.39,34.39,0,0,0,3.37,19.37c6.88,13.79,20,22.56,32.38,30.95,20.34,13.78,38.69,29.65,54.18,48.82a240,240,0,0,1,47.21,97c-27.22-46.4-62.23-85.86-103.15-127.41-15-15.23-31.1-29-47.1-43.1-11.94-10.52-23.45-22.83-28.06-38.21,6.58-14.58,20.94-22,35.66-21,5.83-3.61,11.34-5.11,15.37-2.85,17.47,9.84,34.33,21,51.06,32.31,18.84,12.73,37.53,25.64,56.8,37.13a395.6,395.6,0,0,1,29.6,49.91c-2.64-.68-5.29-1.44-7.91-2.26-29.34-9.15-56.38-25.36-80.94-44.67a474.5,474.5,0,0,1-44.62-40.42Z"/><path class="cls-10" d="M521.29,726.63l.15,0a8,8,0,0,0,7.14-7.95v-72l-30.88-25.84c-3.36-3.82-12.88-11.45-18.14-14.23V844.24c2.61-.7,5.23-1.44,7.89-2.19q-.55-51.54-1.12-103.1-.32-30.22-.65-60.44c-.06-5.79-.41-31.84-.65-38-.45-12.11,17.51-13.71,19.12-1.69,3.58,26.76,6.09,53.64,8.28,80.55A8,8,0,0,0,521.29,726.63Z"/><path class="cls-10" d="M673.87,700.74a22.71,22.71,0,0,1-15.77,21.6l-13.29,4.22a22.49,22.49,0,0,1-14.55-.26,28.62,28.62,0,0,1,21.48-47.56,28.07,28.07,0,0,1,10.52,2l2.38,1.75a22.6,22.6,0,0,1,9.22,18.24Z"/><path class="cls-4" d="M543.54,485.92c-2-3.72-14.92-18.91-18.48-10.36-2.32,5.57-.4,15.66-2,22.07-2.62,10.25-10.86,31.56-21.78,36-6,2.43-11.85,4.55-16.65,6.53-18.14,7.47-36.32,20.71-37.21,42-.12,3,4.34,3.5,5.16.7a41.61,41.61,0,0,1,20-25.15,51.05,51.05,0,0,0,5,42.38c1.77,2.91,6.11.33,4.53-2.66a39.76,39.76,0,0,1-2-4.48c-3.42-9.17-1.34-19.18,6.08-25.71a26,26,0,0,1,14.46-6.39,17.48,17.48,0,0,1,8.55,1.39,40.13,40.13,0,0,1,14.55-6.49c-.82.18,1.69-10,2.07-10.81,1.82-4.09,4.87-7.36,7.62-10.81,6-7.55,11.15-15.36,13-25C547.8,501.6,547.23,492.84,543.54,485.92Z"/><path class="cls-7" d="M372.52,485.64c-.17,3.5-1.47,8.23-3.54,13.55-16.91,12.06-35.08,21.58-55.53,23.26-37.13,3-70.45-20.73-98.2-45.6-3.61-3.26-7-6.56-10.5-9.89-6.11-5.5-12.25-11-18.5-16.37-18.8-16-38.67-30.14-62.19-36.27a82.4,82.4,0,0,0-8.82-1.67c-1.45-.21-2.9-.45-4.35-.67-.81-.13-3.46.24-4-.56-.39-.61,3.18-2.87,3.8-3.29,4.9-3.24,10.48-4.6,15.91-6.66a139.5,139.5,0,0,1,15-4.73A142.52,142.52,0,0,1,203.9,395q3.79.74,7.53,1.69a135.73,135.73,0,0,1,18.26,6c19.43,7.93,34.47,21.11,51,33.59,8.63,6.51,17.8,12.53,28.18,15.79,11,3.43,22.67,2.85,33.85,5.27a.06.06,0,0,0,.05,0C355,460,373.22,471.22,372.52,485.64Z"/><path class="cls-3" d="M620.76,194.09c-17.92,101.16-33.42,202.61-44.55,304.77a2.62,2.62,0,0,1,.24,1.33c-1.36,16.72-13.53,31.42-30.7,33.36-.72.09-1.42.14-2.12.18-17.22,1-30.11-10.28-36.79-25.59-10.07-23-18-47.19-26.83-70.68q-11-29.12-22-58.29c-.52-1.44-1.07-2.85-1.61-4.29a2.18,2.18,0,0,1-1.3-.84l-9.45-11.59a2.77,2.77,0,0,1-1-1.44,2.68,2.68,0,0,1,.12-2.45c4.85-30.41-11.64-59-12.37-89.13-1.1-45,26.41-86.49,67.64-103.94,40.07-17,86.35-8.16,118.31,20.69a2.84,2.84,0,0,1,3.27,3.08c.16.16.31.3.47.44A2.64,2.64,0,0,1,620.76,194.09Z"/><path class="cls-4" d="M629.49,556.56c-5.6-10.44-15-17.57-17.13,1a73,73,0,0,1-23.59,46c-6,2.43-11.85,4.55-16.65,6.53-18.14,7.47-36.32,20.71-37.21,42-.12,3,4.34,3.5,5.16.7a41.61,41.61,0,0,1,20-25.15,51.05,51.05,0,0,0,5,42.38c1.77,2.91,6.11.33,4.53-2.66a39.76,39.76,0,0,1-2-4.48c-3.42-9.17-1.34-19.18,6.08-25.71a26,26,0,0,1,14.46-6.39,17.48,17.48,0,0,1,8.55,1.39,40.11,40.11,0,0,1,14.55-6.49,23.55,23.55,0,0,1,9.18-20.58l.23-.18c10.31-8.13,14.72-23.72,13-36.77A36.31,36.31,0,0,0,629.49,556.56Z"/><path class="cls-1" d="M881.65,624.42c-71.42-14.88-126.77-68-190.33-103.82-5.09-2.85-12.55.28-20,6.14-12.55,9.78-17.21,28.67-19,38.26-2.33,8.17-8-1.24-8-1.14-2.14,11-10.07,22.74-21.3,22.58-5.18-.07-10-2.68-14.21-5.65C573.24,556,565.38,508,549.56,467.67c-15.49-39.52-40.68-74.36-61.11-111.59-37.53-68.44-59.23-189.61,48.8-203.8,41.68-5.48,83.92,14.07,113.39,44s47.7,69.26,60.69,109.24,21.32,81.34,34.24,121.34a471.06,471.06,0,0,0,27.88,68.2C799.2,546.17,834.9,591.95,881.65,624.42Z"/><path class="cls-5" d="M461.6,318.6c-.79,14.41-4.22,27.6-10,35.76v.07c0,1.31-.31,3-2.06,3.48a98.59,98.59,0,0,1-120.15-62.67,2.3,2.3,0,0,1,0-1.77,2.41,2.41,0,0,1,3.12-2c.89.25,1.78.46,2.68.67,2.38.6,5,3.15,7.51,4.06a40.9,40.9,0,0,0,9.24,2.1,68.63,68.63,0,0,0,18.55-.46c11.12-1.72,23.09-5.18,31.18-13.39a29.16,29.16,0,0,0,2-2.17c3-3.69,5.55-7.77,8.73-11.31,1.12-1.23,3.36-3.66,5.06-2,.16.16.3.35.45.51.77.33,29-14.07,29.22-13.29,6.44,7.07,8.94,17.91,11.64,29.09A117.7,117.7,0,0,1,461.6,318.6Z"/><path class="cls-3" d="M881.65,624.42c-29.69-6.18-56.57-19-82.46-34.38-36.37-21.67-70.72-48.52-107.86-69.44-3.31-1.86-7.6-1.17-12.25,1.12-3.5,16.33-6.49,42.17-22.95,49.06a82.08,82.08,0,0,1-10.43-14c2.42-14.67.88-29.48-1.87-44.25l-.05-.26a78.8,78.8,0,0,0-26.64-45.39,243,243,0,0,0-37.6-26.26c-21.91-12.38-42.68-26.61-60.67-44.44-18.56-18.38-33.1-40.28-47.44-62-3.38-5.09-6.72-10.29-9.82-15.61a117.7,117.7,0,0,0-2.94-33.29,3.36,3.36,0,0,0,.45-.11c37.39,62.47,81.15,117.37,143.87,152,1.09-3.06,18.47-11.27,19.34-8.65.11.33.23.65.33,1a2.25,2.25,0,0,1,1.28-.61c58.15-9.51,107.81,29.65,149.52,66.15C799.2,546.17,834.9,591.95,881.65,624.42Z"/><path class="cls-11" d="M461.6,318.6c-.79,14.41-4.22,27.6-10,35.76v.07c0,1.31-.31,3-2.06,3.48a98.5,98.5,0,0,1-77.91-10.43,2.22,2.22,0,0,1,1.89,0c12.08,4.76,26.12,10.47,39,5.2,16.23-6.62,13.51-21,5.6-32.79-7.77-11.55-13.69-22.95-16.49-35.45a29.16,29.16,0,0,0,2-2.17c3-3.69,5.55-7.77,8.73-11.31,1.12-1.23,3.36-3.66,5.06-2,.16.16.3.35.45.51.77.33,29-14.07,29.22-13.29,6.44,7.07,8.94,17.91,11.64,29.09A117.7,117.7,0,0,1,461.6,318.6Z"/><path class="cls-1" d="M646.62,201.9c-.52-1.07-1.09-2.1-1.63-3.15a2.56,2.56,0,0,1-2.77,1.14,218.25,218.25,0,0,0-105.52,4.36c-30.6,8.94-56.61,24.61-80.83,44.34q-4.46,3.65-8.86,7.47c-.39.32-.75.65-1.14,1-21.93,19.18-45.84,39.84-76,43.22-25.5,2.85-50.76-9.4-65.87-29.83-34.76-47-8.58-108.95,34.61-139.56,25.45-18,56.19-27.45,86.79-32.05,31.95-4.81,64.82-4.41,96.4,2.8a206.51,206.51,0,0,1,47,16.87c34.4,17.24,63.65,44.13,81.43,78.86l.94,1.89C652.66,202.26,648.12,204.91,646.62,201.9Z"/><path class="cls-12" d="M439.52,195.84c-16.94,13.55-39.51,19.38-38.21,45.44.82,16.66,6.48,34.59-7.65,47.51-26.5,24.24-67.29,8.21-89.73-14.21a2.62,2.62,0,0,1,1-4.29,2.69,2.69,0,0,1,4.43-1.35c9.33,8.87,21.15,20,35.27,16.12,19.9-5.5,8.75-25.85-.18-35.46-13.09-14.11-21.18-27.94-17.12-47.82,7.67-37.42,46.32-52.51,80.17-57.13,15.91-2.17,36.51-2,45.23,14.32C460.19,172.91,450.31,187.23,439.52,195.84Z"/><path class="cls-3" d="M660,206.71l-.19-.21c-6.53-3.13-10.4-11.26-14.25-17.15A3.31,3.31,0,0,1,645,188a172.85,172.85,0,0,0-22.32-29.58c-40.26-43-112.68-45.74-152,.17-23.44,27.38-25.93,63-23.7,97.5q4.38-3.83,8.86-7.47c3.27-35.71,16.1-72,49-87.45a160.31,160.31,0,0,0,21.77,114.81c4.24,19.55-27.53,31.79-34.34,47.68C487,336,489.83,352,502,359.12c11.38,6.69,25.35,3.48,32.14-7.84,8.82-14.69,10.82-34.89,10.35-52.22.58.61,1.14,1.24,1.73,1.86.07.44.12.88.19,1.31.47,2.59,3.66,2.29,4.74.46a2.53,2.53,0,0,0,0-4.15.34.34,0,0,0-.07-.11c-2.52-17.73,2.14-36.06,16-48.14,14.69-12.78,35.22-14.67,52.5-6.53-.23,1.16-.42,2.31-.56,3.48-.38,3.36,4.87,3.33,5.25,0,.14-1.12.32-2.22.54-3.31,2.52,1.09,4.62-3.1,2-4.94-.12-.3-.21-.54-.31-.86a40.59,40.59,0,0,1,30.6-25.45A2.15,2.15,0,0,0,659,211,2.66,2.66,0,0,0,660,206.71ZM572.89,240a52.79,52.79,0,0,0-7.51,5c-.14.12-.3.23-.44.35-18.92,15.39-47.3,6.14-53.11-17.54a154,154,0,0,1-1.09-69.09c2.17-.81,4.39-1.52,6.72-2.15a106.72,106.72,0,0,1,31.7-3.43,250.54,250.54,0,0,0,31.65,49C590.88,214.25,586.79,232.37,572.89,240Zm71.93-33.52a20.14,20.14,0,0,1-2.8,5c-.47.58-3.85,3.22-3.85,3.62-1,.72-2,1.49-3,2.28a26,26,0,0,1-35.13-1.68,248.93,248.93,0,0,1-44.85-62.18,148,148,0,0,1,49.29,13.5A180.08,180.08,0,0,1,627,179.42C637,186,650.54,192,644.81,206.43Z"/><path class="cls-1" d="M543.64,533.73c-17.22,1-30.11-10.28-36.79-25.59-10.07-23-18-47.19-26.83-70.68q-11-29.12-22-58.29c22,10.66,40.51,28.32,53.9,49.21C532.05,459.77,539.93,496.9,543.64,533.73Z"/><path class="cls-5" d="M644.22,463.85c-7,.58-13.18-4-18.45-8-8.66-6.56-17.17-13.36-25.77-20q-26.47-20.56-52.91-41.12c-22.13-17.22-52.62-45-32.94-75.37a37.32,37.32,0,0,1,26.15-16.94,39,39,0,0,1,36.18,14.32,215.24,215.24,0,0,1,64.66,76.25,231.68,231.68,0,0,1,12,27.94C659.85,440.36,663.07,462.29,644.22,463.85Z"/><path class="cls-4" d="M653.16,420.88c-13.79,1.24-26.9-7.6-37.51-15.26-26.87-19.45-53.86-45.13-68.08-75.62a77.61,77.61,0,0,1-7.28-27.62,39,39,0,0,1,36.18,14.32,215.24,215.24,0,0,1,64.66,76.25A231.68,231.68,0,0,1,653.16,420.88Z"/><path class="cls-5" d="M684.48,387.23a30.81,30.81,0,0,1-3.62,12.24,23.56,23.56,0,0,1-18.14,12.59c-14.09,1.66-27.5-7.37-38.32-15.19-26.87-19.45-53.86-45.13-68.08-75.62-12.18-26.13-10.75-57.61,14.81-75a49.46,49.46,0,0,1,45-5.46A53.82,53.82,0,0,1,641,259.17a2.06,2.06,0,0,1,0,2.7c.07,3.47.12,6.91.19,10.38a2.82,2.82,0,0,1-.14.89l25.73,59.5C673.92,349.09,686.12,368.63,684.48,387.23Z"/><path class="cls-4" d="M736.3,399.88s-19.84,8.17-42-14c-12.5-12.5-31.07-20.56-48.89-17.82-17,2.61-33.62,16.75-36.44,34.09-2.89,17.82,6.12,37,18.43,49.32,25.64,25.64,61.72-9.27,61.72-9.27l65.19,10.14Z"/><path class="cls-4" d="M684.48,387.23a30.81,30.81,0,0,1-3.62,12.24,319.83,319.83,0,0,1-40.23-54.72c-16.68-28.67-37.49-70.25-24.51-104A53.82,53.82,0,0,1,641,259.17a2.06,2.06,0,0,1,0,2.7c.07,3.47.12,6.91.19,10.38a2.82,2.82,0,0,1-.14.89l25.73,59.5C673.92,349.09,686.12,368.63,684.48,387.23Z"/><path class="cls-7" d="M883.47,626.19s-93.2-68.59-127-172.44c0,0-22.35-13.68-71.91-64.8-36.9-38.07-82.41,15.61-43.9,64.63C640.61,453.56,725.48,598.67,883.47,626.19Z"/><path class="cls-5" d="M674.45,224.85c52.46,65.52,45.62,150.08,75.36,225a2.3,2.3,0,0,1-.77-.35,324.62,324.62,0,0,1-97.9-104.71c-18.52-31.82-42.11-79.54-19-114.83a54,54,0,0,1,27.59-21.41A206.12,206.12,0,0,1,674.45,224.85Z"/><path class="cls-13" d="M961.91,588c-13.53,26.85-39.45,47.37-70.42,37.91-12.2-3.69-25.19-12-38.49-26.48-31-33.64-51.73-61.56-65.48-83.32-23-36.37-26.69-55.56-26.69-55.56S775,468.68,799,477.8c30.55,11.59,76.9,24.77,129.83,24.77C975.7,502.57,980.43,551.25,961.91,588Z"/><path class="cls-6" d="M896.47,627.22a63.13,63.13,0,0,1-18.87-7.4c-.1-.07-.23-.12-.35-.21-.65-.37-1.3-.77-1.94-1.17s-1.07-.66-1.59-1c-.75-.51-1.52-1-2.28-1.54-.54-.37-1.09-.77-1.63-1.17l-1.38-1c-.91-.68-1.84-1.42-2.77-2.19-2.31-1.89-4.62-4-7-6.2-1.89-1.82-3.8-3.78-5.71-5.85-31-33.64-51.73-61.56-65.48-83.32.72-.05,1.23.05,1.45.33,12,15.4,28.15,25.78,45.77,33.64,13.16,5.9,27.17,10.38,40.82,14.51q16.38,5,32.91,9.42C942.2,583.18,930.7,634.26,896.47,627.22Z"/><path class="cls-5" d="M385.37,242a35.22,35.22,0,0,1-8.07-36.3c1.08-3.21-4-4.59-5.06-1.4a40.57,40.57,0,0,0,9.42,41.41C384,248.17,387.72,244.45,385.37,242Z"/><path class="cls-9" d="M834.74,550.09c-17.63-7.86-33.8-18.24-45.77-33.64-.23-.28-.74-.39-1.45-.33-23-36.37-26.69-55.56-26.69-55.56S775,468.68,799,477.8a354.31,354.31,0,0,0,29.27,61.56C830.4,542.9,832.55,546.49,834.74,550.09Z"/><path class="cls-2" d="M891.49,625.92a67.81,67.81,0,0,1-13.88-6.11c-.1-.07-.23-.12-.35-.21-.65-.37-1.3-.77-1.94-1.17s-1.07-.66-1.59-1c-.75-.49-1.51-1-2.28-1.54-.54-.37-1.09-.77-1.63-1.17l-1.38-1c-.91-.68-1.84-1.42-2.77-2.19q-3.47-2.81-7-6.2c-1.89-1.82-3.8-3.78-5.71-5.85-31-33.64-51.73-61.56-65.48-83.32.72-.05,1.23.05,1.45.33,12,15.4,28.15,25.78,45.77,33.64C850.77,576.3,869.61,603.69,891.49,625.92Z"/><path class="cls-10" d="M529.17,866.08c2-.66-.75-8-3.74-15.77A131.47,131.47,0,0,0,529.17,866.08Z"/><path class="cls-14" d="M371.66,204.76c.38,3.9.79,7.91,1.34,11.73a87.88,87.88,0,0,0,2.27,11.09c.95,3.49,1.43,7,2.87,10.16A20.65,20.65,0,0,0,384.3,246l.14.11a2.44,2.44,0,0,1-2.15,4.25,21.51,21.51,0,0,1-11.62-8,30.26,30.26,0,0,1-5.83-12.53,54.25,54.25,0,0,1-.44-13.14,53.32,53.32,0,0,1,2.52-12.64,2.43,2.43,0,0,1,4.72.54Z"/><path class="cls-14" d="M500.14,433.59a110.34,110.34,0,0,0-27.08,4.36c-2.19.7-4.43,1.21-6.57,2.06L460,442.37l-6.34,2.73c-2.13.87-4.15,2-6.24,3-16.56,8.14-31.87,18.78-46.27,30.45-3.57,3-7.13,5.94-10.62,9s-6.73,6.2-10.6,9.34l-5.6,4.71-6,4.19-3,2.09-3.21,1.8-6.44,3.57C337.91,521.65,318,526,298.34,524.35c-4.94-.12-9.77-1.15-14.64-1.85-2.4-.54-4.77-1.2-7.16-1.79l-3.57-.93-3.48-1.23c-2.31-.84-4.66-1.6-6.93-2.51l-6.69-3.1a59.18,59.18,0,0,1-6.48-3.5l-3.18-1.86a30.34,30.34,0,0,1-3.12-2,116.09,116.09,0,0,1-11.69-8.92l-2.78-2.4a26.69,26.69,0,0,1-2.68-2.51l-5.09-5.3c-1.76-1.78-3.19-3.48-4.76-5.22s-3.11-3.44-4.68-5.14-3.16-3.39-4.78-5-3.21-3.34-4.89-4.94a255.85,255.85,0,0,0-20.68-18.51c-3.56-3-7.32-5.62-11-8.35l-5.74-3.85c-1.89-1.32-3.92-2.4-5.88-3.61-15.76-9.39-33.36-16.06-51.66-16.71h-.06a2.4,2.4,0,0,1,.06-4.8,99.85,99.85,0,0,1,28.61,4.13c9.32,2.6,18.07,6.77,26.5,11.32,2.07,1.2,4.24,2.27,6.24,3.58l6.09,3.82c3.94,2.71,7.93,5.36,11.69,8.3a263.88,263.88,0,0,1,21.88,18.42c1.77,1.59,3.46,3.27,5.17,4.93s3.42,3.32,5.07,5,3.35,3.38,5,5.13,3.26,3.57,4.85,5.08l4.79,4.76a22.94,22.94,0,0,0,2.51,2.25l2.6,2.14a106.22,106.22,0,0,0,10.88,7.93,25.93,25.93,0,0,0,2.89,1.72l2.94,1.63a51.58,51.58,0,0,0,6,3.06l6.14,2.73c2.08.82,4.23,1.48,6.33,2.23l3.17,1.1,3.26.81c2.18.52,4.34,1.1,6.52,1.58,4.43.63,8.81,1.65,13.29,1.76a105,105,0,0,0,26.73-1.29l6.58-1.33c2.17-.52,4.29-1.27,6.44-1.89l3.22-1c1.06-.37,2.08-.84,3.12-1.25l6.22-2.56,5.94-3.15,3-1.58,2.8-1.87,5.62-3.73,5.26-4.27,2.64-2.13c.88-.72,1.79-1.54,2.68-2.31,1.8-1.55,3.56-3.14,5.41-4.65l5.49-4.55,5.61-4.41c15.12-11.55,31.17-22.06,48.61-30,2.2-1,4.34-2,6.59-2.86l6.71-2.58,6.85-2.21c2.27-.79,4.64-1.24,7-1.88a115.68,115.68,0,0,1,28.59-3.44,2.39,2.39,0,0,1,0,4.78Z"/><path class="cls-14" d="M353.62,228a100.07,100.07,0,0,1-7.33,6.94l-3.8,3.22-3.93,3a193.22,193.22,0,0,1-16.38,11.2c-2.77,1.82-5.68,3.38-8.57,5s-5.76,3.26-8.76,4.65l-8.91,4.36-9.14,3.85-4.58,1.91-4.67,1.66-9.35,3.29c-3.11,1.12-6.33,1.88-9.5,2.84l-9.53,2.73c-6.45,1.43-12.89,2.92-19.35,4.3l-19.57,3.16c-6.56.72-13.14,1.33-19.71,2-3.28.41-6.59.38-9.88.54l-9.9.36c-6.64.31-13.1.31-19.6.43s-13,.32-19.46.59c-25.91,1.09-51.79,3.36-77.08,8-3.16.59-6.3,1.22-9.42,1.92-.74.17-1.65.34-2.25.51l-.95.25-.88.31a15.49,15.49,0,0,0-3.22,1.56,11.33,11.33,0,0,0-4.24,5,13.52,13.52,0,0,0-.95,6.88,14.69,14.69,0,0,0,7.56,11.48,12.65,12.65,0,0,0,6.8,1.28,14.18,14.18,0,0,0,1.86-.23c.28,0,.69-.11,1.11-.2l1.23-.24c1.63-.34,3.27-.64,4.91-.93a299.18,299.18,0,0,1,79.27-3.08c13.32,1.28,25.89,3.21,38.82,3.76s25.83.55,38.76-.1,25.83-2,38.68-3.77,25.69-4,38.2-7l.08,0a2.4,2.4,0,0,1,1.19,4.65,426.46,426.46,0,0,1-77.7,13.11q-19.69,1.43-39.51,1c-13.18-.27-26.51-2-39.2-2.92A299.06,299.06,0,0,0,58,339.54c-1.57.31-3.14.62-4.69,1l-1.17.25c-.38.08-.77.17-1.3.26a24.17,24.17,0,0,1-3,.43,23,23,0,0,1-12.22-2.16,23.3,23.3,0,0,1-9.32-8.21,27.62,27.62,0,0,1-2.77-5.47,28.05,28.05,0,0,1-1.41-5.95,24.12,24.12,0,0,1,1.68-12.29A22.08,22.08,0,0,1,32,297.6a25.62,25.62,0,0,1,5.56-2.71A23.56,23.56,0,0,1,40.4,294c1-.26,1.67-.37,2.52-.56,3.25-.71,6.51-1.35,9.77-1.94,13-2.38,26.16-4,39.29-5.09s26.25-1.8,39.38-2.17Q141.2,284,151,284c6.56,0,13.15.06,19.55-.16l9.68-.22c3.22-.11,6.46,0,9.66-.39l19.28-1.59,19.15-2.69,19-3.8,9.34-2.47c3.1-.87,6.26-1.55,9.31-2.58l9.18-3,4.59-1.52,4.49-1.77,9-3.52,8.79-4c3-1.27,5.8-2.79,8.65-4.29s5.74-2.93,8.47-4.63a187.55,187.55,0,0,0,16.23-10.43l3.9-2.84,3.75-3c2.47-2,4.92-4.17,7.07-6.31l.11-.1a2.39,2.39,0,0,1,3.42,3.34Z"/><path class="cls-14" d="M602.07,145.17a307.41,307.41,0,0,0-35.94-20.44c-3.1-1.49-6.29-2.81-9.43-4.22L552,118.42l-4.83-1.85c-3.22-1.21-6.42-2.5-9.66-3.65l-9.82-3.19a264.6,264.6,0,0,0-40.11-9.27c-6.76-1.24-13.61-1.59-20.42-2.32l-10.26-.35c-1.71,0-3.42-.15-5.12-.13l-5.12.17c-27.27.57-54.48,6.77-78.56,18.95A153.84,153.84,0,0,0,335,139.95,133.94,133.94,0,0,0,309.64,171a103.75,103.75,0,0,0-13.44,37.14,90,90,0,0,0,2.79,39c.41,1.6,1,3.15,1.53,4.7s1.07,3.15,1.73,4.58a60.79,60.79,0,0,0,4.39,8.53,63.69,63.69,0,0,0,28.81,24.83,64.63,64.63,0,0,0,9.15,3.13,53.91,53.91,0,0,0,9.48,1.71c12.84,1.21,26.16-1.79,38.26-7.09,6.09-2.71,12-6.1,18.1-9.56a71.42,71.42,0,0,1,10-4.85,24.4,24.4,0,0,1,6.17-1.42,16.76,16.76,0,0,1,3.58.07,13.17,13.17,0,0,1,6.9,3.45c.44.44.79.91,1.18,1.38a8.68,8.68,0,0,1,1,1.43,24.26,24.26,0,0,1,2.51,5.81l.73,2.85.53,2.55,1.06,5.1,4.29,20.45c2.83,13.67,5.44,27.46,7.19,41.42l0,.13A3.31,3.31,0,0,1,453.2,360a105.79,105.79,0,0,1-11.38,2.27c-3.78.58-7.57,1-11.38,1.24a128.82,128.82,0,0,1-22.86-.49,104.88,104.88,0,0,1-22.38-4.89l-5.41-1.94-5.23-2.4L372,352.58l-2.49-1.45-5-2.9a2.4,2.4,0,0,1,2.36-4.17l.22.12,4.76,2.62,2.37,1.31,2.49,1.08,5,2.13,5.16,1.7a99.22,99.22,0,0,0,21.32,4.08,131.51,131.51,0,0,0,21.78,0c3.62-.33,7.24-.76,10.82-1.37a100.51,100.51,0,0,0,10.5-2.28l-2.44,3.75c-2-13.64-4.78-27.18-7.84-40.72l-4.66-20.35-1.16-5.1-.57-2.55-.61-2.19c-.88-2.82-2.27-5.21-3.76-5.71-1.32-.81-4-.37-6.79.66a63.84,63.84,0,0,0-8.66,4.42c-5.94,3.49-12.07,7.18-18.64,10.26a96.1,96.1,0,0,1-20.77,6.95,77.67,77.67,0,0,1-22.13,1.53,63.71,63.71,0,0,1-11.07-1.83A74.59,74.59,0,0,1,331.53,299a76,76,0,0,1-19.08-11.61,73.68,73.68,0,0,1-14.75-16.86,71.22,71.22,0,0,1-5.21-10c-.8-1.73-1.36-3.45-2-5.17s-1.25-3.44-1.72-5.22a97.94,97.94,0,0,1-3.08-43.62,111.21,111.21,0,0,1,15.08-40.8,143.92,143.92,0,0,1,27.61-33.1,163.39,163.39,0,0,1,35.41-24.22c25.78-12.7,54.32-18.77,82.68-18.84l5.32-.08c1.77,0,3.54.15,5.31.22l10.61.55c7,.86,14.09,1.36,21,2.75a263.16,263.16,0,0,1,41,10.25l10,3.5c3.29,1.26,6.52,2.64,9.79,4l4.88,2,4.78,2.24c3.17,1.52,6.39,2.94,9.52,4.53a312.81,312.81,0,0,1,36.12,21.68,2.39,2.39,0,0,1-2.68,4Z"/><path class="cls-14" d="M525.32,908.09c-.35-31-.17-62-.11-92.9s.12-61.86-.85-92.71-2.74-61.65-6.23-92.23c-1.68-15.3-4-30.51-6.53-45.65s-5.45-30.42-8.34-45.56-6.14-30.2-9.63-45.17-7.54-29.78-12.05-44.43c-9.13-29.24-20.84-57.71-36.32-84.06l-5.91-9.83q-3.12-4.93-6.15-9.93c-4-6.67-7.94-13.45-11.6-20.37-7.3-13.84-13.8-28.24-18.16-43.48a117.25,117.25,0,0,1-4.33-23.46,70.06,70.06,0,0,1,2.12-24.07l.39-1.48.53-1.44,1.06-2.88c.75-1.9,1.75-3.7,2.62-5.55,1.09-1.74,2.13-3.51,3.3-5.18s2.46-3.28,3.87-4.74a65.66,65.66,0,0,1,19.42-14.18,2.4,2.4,0,0,1,2.19,4.27l0,0A60.59,60.59,0,0,0,417,216.55c-1.24,1.35-2.23,2.9-3.36,4.33s-1.88,3.12-2.82,4.68c-.72,1.68-1.58,3.29-2.2,5l-.87,2.59-.44,1.29-.31,1.34a66.22,66.22,0,0,0-1.43,22,110.43,110.43,0,0,0,4.5,22c4.43,14.47,11,28.34,18.36,41.72q5.56,10,11.74,19.76,3.08,4.87,6.25,9.69l6.24,9.95c16.46,26.73,28.8,55.77,38.51,85.45s16.72,60.16,22.47,90.68q4.3,22.91,8,45.84c2.43,15.4,4.57,30.84,6.08,46.33,3.15,31,4.67,62,5.15,93.08s-.09,62-.75,93-1.7,61.89-2.08,92.81a2.39,2.39,0,0,1-4.79,0Z"/><path class="cls-14" d="M869.18,890.52a526.46,526.46,0,0,0-27.69-84.79A519.92,519.92,0,0,0,799.75,727c-1.94-3.18-4.11-6.19-6.19-9.28s-4.16-6.16-6.31-9.19l-6.59-9L777.35,695l-3.44-4.39L767,681.87l-7.16-8.55L756.28,669l-3.71-4.16-7.43-8.32Q730,640.23,713.67,625t-33.78-29.13q-17.38-14-35.7-26.79C632,560.45,619.57,552.29,607,544.13c-3.13-2.06-6.27-4.09-9.4-6.22-1.57-1-3.13-2.11-4.69-3.24-.78-.57-1.56-1.09-2.34-1.69l-2.33-1.87a66.12,66.12,0,0,1-15.06-18.16,83.51,83.51,0,0,1-8.64-21.73A86,86,0,0,1,562,468c.36-7.83,1.58-15.88,5.71-23.32a23.38,23.38,0,0,1,9.23-9.42,19.31,19.31,0,0,1,13.48-1.57A28.24,28.24,0,0,1,602,439.41a45.65,45.65,0,0,1,8.13,9.19,98.46,98.46,0,0,1,10.13,21c5.13,14.48,8.25,29.35,10.69,44.25s4,29.86,4.89,45l-.11-.78a36,36,0,0,1,.67,15.28,31.72,31.72,0,0,1-6.45,14.12,46,46,0,0,1-11.18,10,78.51,78.51,0,0,1-12.84,6.62,128,128,0,0,1-13.4,4.58c-2.25.65-4.51,1.24-6.73,1.81l-3.26.84c-.52.14-1,.28-1.42.41s-.9.38-1.35.57c-7.49,2.72-12.57,9.34-14.72,17.17a45.83,45.83,0,0,0-1.34,12.32,62.41,62.41,0,0,0,1.89,12.56,66.09,66.09,0,0,0,4.59,11.9c1.05,1.86,2.18,3.69,3.26,5.55a16,16,0,0,0,1.66,2.43A20.34,20.34,0,0,0,577,676.3l5,4.46a22.87,22.87,0,0,0,4.76,3.22,21.9,21.9,0,0,0,2.57,1.1,20.36,20.36,0,0,0,2.68.64,16.6,16.6,0,0,0,5.47.06c7.33-1,14.14-6.75,16.79-13.78a17.7,17.7,0,0,0,.73-10.8,20.53,20.53,0,0,0-5.74-9.51,38.58,38.58,0,0,0-4.69-3.92c-1.16-.82-2-1.45-2.89-2.15L599,643.56l-10.92-8.27-43.7-33.09L457,536l-21.85-16.54-2.73-2.07c-.44-.32-1-.75-1.32-1l-1.12-.74a19.21,19.21,0,0,0-2.35-1.25,24.8,24.8,0,0,0-2.53-.82,17.29,17.29,0,0,0-10.5.73A15.81,15.81,0,0,0,404.5,531a21,21,0,0,0,1.4,5.27,30.22,30.22,0,0,0,2.84,5.11,50.77,50.77,0,0,0,8.35,9.26,78.34,78.34,0,0,0,21.52,13.86,50.1,50.1,0,0,0,12,3.32,45.39,45.39,0,0,0,12.32,0,96,96,0,0,0,12.7-2.83A111.43,111.43,0,0,0,488,560.87a90.54,90.54,0,0,0,11.51-5.78,67.36,67.36,0,0,0,10.14-7.61A57,57,0,0,0,524,527a77.53,77.53,0,0,0,5.51-24.94c1-17.38-2.12-35.14-6.95-52.34a359.24,359.24,0,0,0-18.93-50.53c-3.73-8.24-7.7-16.38-11.82-24.46s-8.44-16-12.66-24.32C470.75,334,463.25,316.88,458,298.91s-8.29-36.81-7.32-55.85a124.84,124.84,0,0,1,16-54.44,99.44,99.44,0,0,1,17.7-22.77A76.81,76.81,0,0,1,508.91,150a86.6,86.6,0,0,1,28.46-5.75,113.82,113.82,0,0,1,28.45,2.6,178.45,178.45,0,0,1,52.66,19.59,191.83,191.83,0,0,1,44.05,34.73,226.47,226.47,0,0,1,33,45.12,263.64,263.64,0,0,1,12.34,25q5.45,12.85,9.62,26.17a271.75,271.75,0,0,1,7,27c1,4.5,1.73,9.2,2.59,13.61l2.49,13.36c.78,4.46,1.91,8.86,2.84,13.29s1.93,8.85,3.11,13.22l3.4,13.15,3.81,13A532.52,532.52,0,0,0,761.2,455.2a465.19,465.19,0,0,0,53.54,94.19,412.39,412.39,0,0,0,35.07,41.34q9.42,9.74,19.6,18.67c3.39,3,6.84,5.87,10.36,8.66s7.16,5.55,10.7,7.91l.14.09a4,4,0,0,1-3.08,7.21,354.32,354.32,0,0,1-37.87-11q-18.56-6.42-36.5-14.42c-12-5.29-23.66-11.18-35.11-17.52s-22.64-13.15-33.41-20.6c-2.72-1.83-5.42-3.67-8-5.64l-7.92-5.81c-5.12-4.08-10.37-8-15.29-12.34a345.91,345.91,0,0,1-28.55-27c-4.42-4.85-8.92-9.61-13-14.73-2.07-2.54-4.26-5-6.23-7.61l-5.93-7.85c-2-2.58-3.85-5.31-5.69-8l-5.52-8.14-5.11-8.41c-1.71-2.8-3.44-5.58-4.93-8.51-3.09-5.78-6.31-11.5-9-17.5l-4.17-8.92a45.22,45.22,0,0,1-3-10.06,38.64,38.64,0,0,1,2.28-20.83,40,40,0,0,1,12.75-16.55,37.55,37.55,0,0,1,19.46-7.69,33.61,33.61,0,0,1,20.45,4.8,38,38,0,0,1,8.15,6.61c1.25,1.28,2.29,2.47,3.37,3.67l3.23,3.6c2.14,2.42,4.3,4.8,6.54,7.13s4.4,4.71,6.66,7c18,18.4,37.45,35.58,58.91,49.74a221.84,221.84,0,0,0,33.64,18.56,140.69,140.69,0,0,0,36.62,10.64h0a2.4,2.4,0,0,1-.64,4.76,145.55,145.55,0,0,1-38-10.76,227,227,0,0,1-34.55-18.77c-22-14.31-41.75-31.61-60.14-50.12-2.3-2.31-4.52-4.71-6.78-7.05s-4.48-4.74-6.66-7.17l-3.29-3.62c-1.1-1.21-2.21-2.45-3.23-3.48a32,32,0,0,0-6.94-5.57,26.76,26.76,0,0,0-8.11-3.27,26.33,26.33,0,0,0-8.7-.58,31.36,31.36,0,0,0-16.19,6.55,33.7,33.7,0,0,0-10.66,14,32.21,32.21,0,0,0-1.81,17.37,38.73,38.73,0,0,0,2.56,8.54l4.11,8.69c2.62,5.86,5.8,11.44,8.85,17.09,1.47,2.85,3.18,5.57,4.86,8.3l5,8.2,5.44,7.94c1.81,2.65,3.6,5.31,5.6,7.83l5.83,7.66c1.93,2.56,4.09,4.94,6.13,7.42,4,5,8.47,9.64,12.81,14.37A338.39,338.39,0,0,0,718,540.51c4.84,4.23,10,8.06,15,12l7.8,5.67c2.58,1.92,5.24,3.72,7.91,5.5,10.6,7.27,21.63,13.91,32.91,20.09s22.81,11.92,34.59,17.07,23.77,9.87,35.94,14a348.29,348.29,0,0,0,36.9,10.52l-2.95,7.3c-4.07-2.7-7.7-5.43-11.38-8.32s-7.21-5.84-10.71-8.87q-10.47-9.11-20.16-19a420.67,420.67,0,0,1-36-42,474,474,0,0,1-55-95.73,542.07,542.07,0,0,1-19-51.89L730,393.59l-3.51-13.37c-1.22-4.44-2.21-8.94-3.21-13.44s-2.12-9-2.93-13.5l-2.58-13.57c-.9-4.55-1.59-8.88-2.57-13.3a262.26,262.26,0,0,0-6.85-26q-4.07-12.83-9.36-25.23a253.65,253.65,0,0,0-12-24.06A216.52,216.52,0,0,0,655.32,208a181.76,181.76,0,0,0-41.82-32.77,168.18,168.18,0,0,0-49.7-18.3,103.44,103.44,0,0,0-26-2.32,76.18,76.18,0,0,0-25,5.1,66.61,66.61,0,0,0-21.2,13.75,89,89,0,0,0-15.8,20.36,114.43,114.43,0,0,0-14.65,49.77c-.89,17.5,1.88,35.25,6.91,52.31s12.25,33.64,20.43,49.74c4.08,8,8.5,16.11,12.65,24.3s8.22,16.48,12,24.89a369.54,369.54,0,0,1,19.48,52c5,17.91,8.43,36.65,7.27,55.85a87.94,87.94,0,0,1-6.39,28.3A69.65,69.65,0,0,1,526.37,544a68.22,68.22,0,0,1-9.81,11.07,77.59,77.59,0,0,1-11.77,8.78,100.71,100.71,0,0,1-13,6.46,121.53,121.53,0,0,1-13.6,4.5,105.2,105.2,0,0,1-14,3.05,55.47,55.47,0,0,1-15,0,60.1,60.1,0,0,1-14.37-4,88.07,88.07,0,0,1-24.32-15.73,60.43,60.43,0,0,1-9.9-11.1,39.86,39.86,0,0,1-3.76-6.87,30.75,30.75,0,0,1-2.07-7.94,25.48,25.48,0,0,1,3.55-16.22c.38-.6.75-1.21,1.15-1.79l1.35-1.64.68-.81.77-.73,1.55-1.44a27.2,27.2,0,0,1,23.62-5.27,33.28,33.28,0,0,1,4,1.32,28.78,28.78,0,0,1,3.69,2l1.74,1.16c.59.4.95.71,1.43,1.06l2.72,2.08,21.8,16.62,87.18,66.46,43.59,33.23,10.9,8.31,2.72,2.08c.89.67,1.89,1.45,2.59,1.95a47.21,47.21,0,0,1,5.8,4.87,29.42,29.42,0,0,1,8.11,13.73,26.56,26.56,0,0,1-1.1,16.1,29,29,0,0,1-3.84,7,30,30,0,0,1-5.45,5.76,29,29,0,0,1-6.76,4.22,26.9,26.9,0,0,1-7.75,2.27,25.3,25.3,0,0,1-8.16-.12,29,29,0,0,1-4-1,30.47,30.47,0,0,1-3.72-1.59,31.48,31.48,0,0,1-6.55-4.45l-5.2-4.65a28.76,28.76,0,0,1-2.75-2.94,22.71,22.71,0,0,1-2.21-3.21c-1.22-2.09-2.48-4.16-3.65-6.28a74.48,74.48,0,0,1-5.22-13.64,70.86,70.86,0,0,1-2.12-14.49,54.21,54.21,0,0,1,1.68-14.82A36.06,36.06,0,0,1,564,613.58a32.38,32.38,0,0,1,5.78-5.37l3.36-2.06a37.5,37.5,0,0,1,3.56-1.59c.61-.24,1.19-.51,1.82-.73s1.29-.38,1.87-.54l3.37-.86c2.2-.55,4.36-1.12,6.51-1.72a119.72,119.72,0,0,0,12.54-4.24c8-3.3,15.74-7.7,20.75-14A23.54,23.54,0,0,0,628.41,572a27.91,27.91,0,0,0-.52-11.89,4.14,4.14,0,0,1-.11-.73v-.06c-.79-14.69-2.38-29.54-4.65-44.15s-5.36-29.14-10.19-42.89a91.11,91.11,0,0,0-9.19-19.34,38.19,38.19,0,0,0-6.64-7.6,20.49,20.49,0,0,0-8.3-4.22,11.65,11.65,0,0,0-8.32.85,15.93,15.93,0,0,0-6.17,6.43c-3.23,5.68-4.5,12.84-4.81,19.86a79.29,79.29,0,0,0,10,41.06,58.81,58.81,0,0,0,13.35,16.24l2,1.65c.7.55,1.47,1.07,2.2,1.6,1.46,1.07,3,2.12,4.52,3.15,3,2.09,6.18,4.13,9.28,6.19,25.06,16.31,49.92,33.38,73.22,52.38q17.5,14.23,34,29.65t31.64,32.15l7.47,8.46L761,665l3.6,4.34L771.8,678l6.92,8.91,3.46,4.46,3.32,4.56,6.62,9.13c2.16,3.08,4.22,6.22,6.33,9.33s4.26,6.2,6.2,9.42a525.28,525.28,0,0,1,41.73,79.85,531.46,531.46,0,0,1,27.47,85.76,2.39,2.39,0,0,1-4.66,1.09Z"/><path class="cls-15" d="M359.52,510a95.35,95.35,0,0,1-8.44,5.75A48.9,48.9,0,0,0,359.52,510Z"/><path class="cls-9" d="M342.69,457.3C313.33,459,299,470.87,295.78,483.86c-4.19,16.72-18,24.86-36.16,17.36-17-7.05-21.58-27-22.88-43.52-1-13-1.23-26-6.84-38a62.41,62.41,0,0,0-18.47-23,135.73,135.73,0,0,1,18.26,6c19.43,7.93,34.47,21.11,51,33.59,8.63,6.51,17.8,12.53,28.18,15.79C319.83,455.47,331.5,454.89,342.69,457.3Z"/></svg>