<?xml version="1.0" encoding="utf-8"?>
<!-- Generator: Adobe Illustrator 18.1.1, SVG Export Plug-In . SVG Version: 6.00 Build 0)  -->
<svg version="1.1" id="Layer_1" xmlns="http://www.w3.org/2000/svg" xmlns:xlink="http://www.w3.org/1999/xlink" x="0px" y="0px"
	 viewBox="0 0 56.7 56.7" enable-background="new 0 0 56.7 56.7" xml:space="preserve">
<g>
	<rect x="0" y="0" fill="none" width="56.7" height="56.7"/>
	
		<rect x="7.8" y="22.1" fill="none" stroke="#B45858" stroke-linecap="round" stroke-linejoin="round" stroke-miterlimit="10" width="17" height="2.8"/>
	<path fill="#CFCECE" stroke="#5E5F5F" stroke-linecap="round" stroke-linejoin="round" stroke-miterlimit="10" d="M10.6,39.1v1.4
		c0,0.8,0.6,1.4,1.4,1.4c0.8,0,1.4-0.6,1.4-1.4v-1.4H10.6z"/>
	<path fill="#CFCECE" stroke="#5E5F5F" stroke-linecap="round" stroke-linejoin="round" stroke-miterlimit="10" d="M44.6,39.1v1.4
		c0,0.8,0.6,1.4,1.4,1.4c0.8,0,1.4-0.6,1.4-1.4v-1.4H44.6z"/>
	<path fill="none" stroke="#B45858" stroke-linecap="round" stroke-linejoin="round" stroke-miterlimit="10" d="M28.4,36.2H7.8v2.8
		h26.9C32.2,39.1,30,38,28.4,36.2z"/>
	<path fill="none" stroke="#B45858" stroke-linecap="round" stroke-linejoin="round" stroke-miterlimit="10" d="M41,36.2
		c-1.6,1.7-3.8,2.8-6.3,2.8h15.6v-2.8H41z"/>
	<path fill="#CFCECE" stroke="#5E5F5F" stroke-linecap="round" stroke-linejoin="round" stroke-miterlimit="10" d="M53.1,24.9H41
		c-1.6-1.7-3.8-2.8-6.3-2.8c-2.5,0-4.8,1.1-6.3,2.8H5v11.3h23.4c1.6,1.7,3.8,2.8,6.3,2.8c2.5,0,4.8-1.1,6.3-2.8h12.1V24.9z"/>
	
		<rect x="46.1" y="31.3" fill="none" stroke="#5E5F5F" stroke-width="0.5" stroke-linecap="round" stroke-linejoin="round" stroke-miterlimit="10" width="2.8" height="2.8"/>
	
		<rect x="46.1" y="27" fill="none" stroke="#5E5F5F" stroke-width="0.5" stroke-linecap="round" stroke-linejoin="round" stroke-miterlimit="10" width="2.8" height="2.8"/>
	<path fill="none" stroke="#5E5F5F" stroke-width="0.5" stroke-linecap="round" stroke-linejoin="round" stroke-miterlimit="10" d="
		M7.1,24.9v11.3V24.9z"/>
	<path fill="none" stroke="#5E5F5F" stroke-width="0.5" stroke-linecap="round" stroke-linejoin="round" stroke-miterlimit="10" d="
		M51,24.9v11.3V24.9z"/>
	<g>
		<path fill="none" stroke="#5E5F5F" stroke-linecap="round" stroke-linejoin="round" stroke-miterlimit="10" d="M3.5,27.4h14.2H3.5
			z"/>
		<path fill="none" stroke="#5E5F5F" stroke-linecap="round" stroke-linejoin="round" stroke-miterlimit="10" d="M3.5,29.5h14.2H3.5
			z"/>
		<path fill="none" stroke="#5E5F5F" stroke-linecap="round" stroke-linejoin="round" stroke-miterlimit="10" d="M3.5,31.6h14.2H3.5
			z"/>
		<path fill="none" stroke="#5E5F5F" stroke-linecap="round" stroke-linejoin="round" stroke-miterlimit="10" d="M3.5,33.8h14.2H3.5
			z"/>
	</g>
	<path fill="none" stroke="#5E5F5F" stroke-width="0.5" stroke-linecap="round" stroke-linejoin="round" stroke-miterlimit="10" d="
		M23.4,28.4c0-0.8-0.6-1.4-1.4-1.4c-0.8,0-1.4,0.6-1.4,1.4l0,0v4.3c0,0.8,0.6,1.4,1.4,1.4c0.8,0,1.4-0.6,1.4-1.4V28.4L23.4,28.4z"/>
	<g>
		
			<path fill="none" stroke="#A09FA1" stroke-width="0.5" stroke-linecap="round" stroke-linejoin="round" stroke-miterlimit="10" d="
			M52.3,48.1l-3.5-3.5L52.3,48.1z"/>
		
			<path fill="none" stroke="#A09FA1" stroke-width="0.5" stroke-linecap="round" stroke-linejoin="round" stroke-miterlimit="10" d="
			M34.7,6.5v12.8V6.5z"/>
		
			<path fill="none" stroke="#A09FA1" stroke-width="0.5" stroke-linecap="round" stroke-linejoin="round" stroke-miterlimit="10" d="
			M44.7,20.6l5-5L44.7,20.6z"/>
		
			<path fill="none" stroke="#A09FA1" stroke-width="0.5" stroke-linecap="round" stroke-linejoin="round" stroke-miterlimit="10" d="
			M40.1,43.7l2.7,6.5L40.1,43.7z"/>
		
			<path fill="none" stroke="#A09FA1" stroke-width="0.5" stroke-linecap="round" stroke-linejoin="round" stroke-miterlimit="10" d="
			M22.7,18.5l-7.1-7.1L22.7,18.5z"/>
		
			<path fill="none" stroke="#A09FA1" stroke-width="0.5" stroke-linecap="round" stroke-linejoin="round" stroke-miterlimit="10" d="
			M22.7,42.6l-7.1,7.1L22.7,42.6z"/>
	</g>
	
		<circle fill="#FFFFFF" stroke="#B45858" stroke-linecap="round" stroke-linejoin="round" stroke-miterlimit="10" cx="34.7" cy="30.6" r="8.5"/>
	
		<circle fill="#FFFFFF" stroke="#B45858" stroke-width="0.5" stroke-linecap="round" stroke-linejoin="round" stroke-miterlimit="10" cx="34.7" cy="30.6" r="6.4"/>
	<path fill="none" stroke="#A09FA1" stroke-width="0.5" stroke-linecap="round" stroke-linejoin="round" stroke-miterlimit="10" d="
		M30.5,30.6c0-2.3,1.9-4.3,4.3-4.3C32.4,26.3,30.5,28.2,30.5,30.6z"/>
</g>
</svg>
