<svg id="Layer_1" data-name="Layer 1" xmlns="http://www.w3.org/2000/svg" viewBox="0 0 1000 1000"><defs><style>.cls-1{fill:#b3d1ff;}.cls-2{fill:#ffb282;}.cls-3{fill:#ffa166;}.cls-4{fill:#ffa973;}.cls-5{fill:#ffefe6;}.cls-6{fill:#4c4f7a;}.cls-7{fill:#595fb8;}.cls-8{fill:#444bb8;}.cls-9{fill:#3b3d5e;}.cls-10{fill:#9ea4fc;}.cls-11{fill:#233940;}</style></defs><title>Signature</title><path class="cls-1" d="M906.58,541.19C907,611.31,899,682,873.16,747c-15.77,39.6-40.3,78.7-79,96.58-27.91,12.9-60.28,13.21-90.42,7.11-62.83-12.71-116.9-50.92-173.9-80.23-63-32.41-132.93-54.73-203.71-51.59-32.76,1.45-65.07,8.31-96.6,17.32-16.91,4.83-37.13,9.64-50.42-1.88-6.36-5.51-9.61-13.79-11.6-22-7.08-29.06-1-59.87-6.16-89.33-8.74-49.88-49.07-93.79-43-144.06,2.69-22.15,14.31-42.12,26.37-60.89C227.53,289.18,352.13,155.83,507,120.56c81.77-18.62,171.76-7.57,241.69,38.73C805.17,196.7,846,254.87,870.41,318.07s33.51,131.43,35.7,199.16Q906.49,529.19,906.58,541.19Z"/><path class="cls-2" d="M712.12,449.91A344.75,344.75,0,0,0,647.48,467c-16.61,6.29-39.84,12.32-54,23.55.51-1.1,9.46-1.56,19.21-24.09,4.12-9.51,8.27-19.59,11.78-29.13,12.1-32.82,42.47-43,80.17-47.83,9.19-1.16,53-.25,61.31.67,23.82,2.64,28.54,21.21,8.87,38.56-12.45,11-30.36,16.44-46.48,18.65Q720.17,448.54,712.12,449.91Z"/><path class="cls-3" d="M753.15,388.19c-42.42-3.89-89.6-70.07-89.6-70.07L591.46,428.61,652.76,430S780.22,390.67,753.15,388.19Z"/><path class="cls-4" d="M697.9,429.28c-23.58-.4-59.18,19.89-85.21,37.22,4.12-9.51,8.27-19.59,11.78-29.13,12.1-32.82,42.47-43,80.17-47.83,8.52-1.07,54-7.69,75.58,5.34A9.84,9.84,0,0,1,785,405C780.71,427.48,724.61,429.73,697.9,429.28Z"/><path class="cls-5" d="M891.66,686.51C850.06,875.36,732,1042.9,575,947.26c-333.19-203-532-20.78-532-251.78,0-81.33,37.32-177.89,95.75-268.87C222.58,485.85,500.59,660.93,891.66,686.51Z"/><path class="cls-6" d="M525.43,628.71c-3.95,3.9-16.16,19.82-19.38,22.46a11.77,11.77,0,0,1-2.54,1.6c-.29.12-.58.24-.9.34s-.61.19-.9.29-.61.15-.92.19a10.2,10.2,0,0,1-2.71.1,11,11,0,0,1-9.91-9.64,139.16,139.16,0,0,1-1-18.46C490.16,628.81,508.72,625.68,525.43,628.71Z"/><path class="cls-7" d="M586.61,531.09c-16,39.53-35.38,72.49-51.53,92.65-.54.67-1.08,1.35-1.62,2-.08.08-.13.16-.22.24A31.62,31.62,0,0,1,506.6,637.3c-8.45-.63-18.1-4.62-21.3-13.09-2.64-7-1.24-15.69-.87-23,.46-9,1.34-18.06,2.54-27a445.38,445.38,0,0,1,8.6-45.26c2.75-11.4,5.17-19.48,6-22.31.22-.75.35-1.13.35-1.13l65.46,19.81,6,1.81,11.78,3.56.51.16Z"/><path class="cls-7" d="M768.27,174.19q-1.09,2.1-1.7,3.32c-1.46,2.86-2.91,5.74-4.37,8.62-.16.32-.32.67-.51,1-1.51,3-3,6-4.55,8.95q-10.23,20.25-20.75,40.34l-19.94-9.51-26.68-12.72L652.2,196.26c5.12-7.49,9.41-13.83,12.69-18.94C686.56,143.49,717.74,89,748.67,55.24c17.17-18.76,34.25-31.15,49.61-30.18C840.84,27.72,781.34,148.34,768.27,174.19Z"/><path class="cls-8" d="M588.76,525.62c-.73,1.83-1.43,3.66-2.16,5.47-16,39.53-35.38,72.49-51.53,92.65-.54.67-1.08,1.35-1.62,2-.08.08-.13.16-.22.24-6.06,7.22-17.25-1.32-12-9.19a446.08,446.08,0,0,0,34.47-62.28c.43-.94.86-1.91,1.27-2.88,10.16-2,21-11.83,28.19-21C586.5,528.94,587.71,527.24,588.76,525.62Z"/><path class="cls-6" d="M736.39,236.41c-10.94,21-22,42-33.15,62.93q-18.35,34.52-36.54,69.1C649,402.2,632,436.32,615.25,470.54q-7.72,15.68-15.39,31.42c-3.42,7-6.85,14.09-10.29,21.13-.57,1.13-1.1,2.26-1.67,3.4-.73,1.45-1.45,2.88-2.24,4.31a57.67,57.67,0,0,1-9.94,14.09,32.45,32.45,0,0,1-20,9.62c-.73.08-1.46.11-2.18.13a42.92,42.92,0,0,1-20.8-5.07,62.3,62.3,0,0,1-18.92-15.17,53.73,53.73,0,0,1-10.21-17.68,42.14,42.14,0,0,1-2-10.13c-1.45-17.84,6.79-37.19,12-53.44,29.16-89.87,80.85-171.74,133.48-249.46,1.75-2.59,3.45-5.07,5.07-7.44l37.57,17.92Z"/><path class="cls-9" d="M615.25,470.54q-4,8.08-8,16.22L599.87,502C595,512,592,522.9,586.53,532.65A44.83,44.83,0,0,1,556,555c1.22-4.8,3.9-9.63,5.71-14.28q3-7.66,5.7-15.4c2.64-7.55,5.07-15.31,7.2-23.23,7.28-27.19,22.42-34.06,38.81-31.8C614,470.33,614.63,470.43,615.25,470.54Z"/><path class="cls-9" d="M791.33,219.65c-35.09,86.58-110.67,117.08-171.9,117.54a19.05,19.05,0,0,0-18.72,17.47,132.57,132.57,0,0,0,1.52,36.9c4.1,21.51-.57,55.08-19.05,69.58-6,4.66-36,15.47-29-2.21,1.67-4.18,18.14-21,17-24.23-28.57-78.72,2.32-166,27.89-241.19,2.8-8.19,18.46-67.26,24.82-79.85A307.39,307.39,0,0,1,662.06,121c10.29,2.67,20.21,6.47,29.81,9.16h0c5.61,2.08,11.08,4.37,16.44,6.79-10.78,17.35-26.76,39.91-43.17,65.49l24.6,11.75c-6.14,12.45-11.86,23.18-16.63,30.8a19.42,19.42,0,0,1-24.39,7.49s-.08,0-.11-.05c-5.85-2.64-12.75-.65-15.68,5-5.17,10-10,20.14-14.28,30.37a12.88,12.88,0,0,0,16.84,16.88c7.73-3.23,15.42-6.51,22.88-10.3,28-14.26,43.84-40.07,58-67.51l19.94,9.51q12.85-24.58,25.3-49.29A296.18,296.18,0,0,1,791.33,219.65Z"/><path class="cls-4" d="M862.59,301.33c-6.74,6.06-14,11.94-21.45,17.54-40.5,30.29-89.79,52.71-123.37,56-7.87.75-32.1,3.23-56.22,3.23-1.4-.27-2.8-.51-4.18-.78-12.85-2.37-24.77-4.53-35.33-7.06-14.48-3.47-23.09-21.3-13.69-33.74,3.4-4.47,8.73-9.05,17.65-13.58l1.94-1.05c17.38-9.08,40.13-13.74,53.71-23.31,27.19-19.13,39.08-23.23,54.27-52.39,10.86-20.89,22.1-42.69,32.66-64.84a1.91,1.91,0,0,0,.32-.48c1-1.21,2-2.4,2.91-3.58,25.22,20.89,46.73,46.16,64.73,74.84A381.1,381.1,0,0,1,862.59,301.33Z"/><path class="cls-8" d="M754.3,201.72q-8.86,17.39-17.91,34.69c-6.64-3.17-13.35-6.21-19.91-9.55,1.44-.19,2.42-1.51,3.23-2.72l14.94-22.33c3.65-5.46,9.4-13.65,17-9.15A7.1,7.1,0,0,1,754.3,201.72Z"/><path class="cls-2" d="M815.59,222.34c-37.82,93.33-122.7,121.49-185.94,117.12-8.65-.6-11.35-12.2-3.8-16.46l.16-.09,1.94-1.05c17.65-9.57,36.86-15.68,54.71-24.77,33.15-16.9,49.29-50,65.78-82.73,3-6,5.82-12.13,8.7-18.3,1.54-3,3-6,4.55-8.95.19-.32.35-.67.51-1,1.46-2.88,2.91-5.77,4.37-8.62q.61-1.21,1.7-3.32l2.61,2.24c.3.24.59.51.89.78A295.7,295.7,0,0,1,815.59,222.34Z"/><path class="cls-2" d="M692.22,130.29l-.35.51c-28.3,41.42-55.73,83.89-81.6,126.74-22,36.49-44.43,90.82-36.34,133.8,0,25,3.66,50-12.74,70.6,0,0,0,.05,0,.11a10,10,0,0,1-10.89,3.21,29.6,29.6,0,0,1-6.05-2.77c-23.73-14.12-29.79-45.77-35.18-70.54-20.7-95.17,0-193.61,42.13-280l.08-.16.24,0a25.28,25.28,0,0,1,2.56-.48c1.64,0,3.29-.08,4.93-.19.86-.05,1.73,0,2.61-.08,4.55-.27,9-.35,13.47-.35,31.37,0,60.31,3.37,87,10.32,10.29,2.67,20.21,6.47,29.83,9.16A1.65,1.65,0,0,1,692.22,130.29Z"/><path class="cls-8" d="M748.43,66.15c-3.91,22.58-34.52,98.93-58.67,148L652.2,196.26c5.12-7.49,9.41-13.83,12.69-18.94C686.56,143.49,717.74,89,748.67,55.24,749.32,57.61,749.29,61.16,748.43,66.15Z"/><path class="cls-4" d="M576.73,391.61c.6,12.17,1,24.35-1,36.41a76.15,76.15,0,0,1-5.57,18.89c-1.4,3.11-6.18,1.36-5.12-1.88l0-.1c2.79-8,6.72-16.3,7.58-24.85,2.13-21.15-13.85-38.08-22-56.12-7.86-17.39-13-36.14-9.37-55.27,11.76-62.18,34.54-122.15,76-170.76,5.61-6.58,11.62-13,19.13-17.29a32.28,32.28,0,0,1,8.58-3.38c5.78,1.22,11.47,2.58,17.06,4,10.29,2.68,20.2,7.55,29.83,9.49,1.16.41,2.33.81,3.47,1.24-34.45,58.86-81.6,108.81-106.2,173.54-7.63,20.08-13.08,41.36-13.22,63C575.9,376.21,576.35,383.91,576.73,391.61Z"/><path class="cls-7" d="M634.66,232.45h0A19.44,19.44,0,0,0,659.07,225c23.48-37.68,89.18-135.22,94.08-163.53,6.06-35-31-12.8-37.05-5.39-5.53,6.76-72.22,90.39-92,152.58A19.52,19.52,0,0,0,634.66,232.45Z"/><path class="cls-10" d="M350.43,736.72c28-1.31,50.55-19.36,66.56-41.09,12.81-17.38,22.57-38,26.86-59.22,2.33-11.53,5.23-31.64-6.82-39.24-5.47-3.45-12.23-2.4-17.93-.12-11,4.42-19.81,12.78-28.71,20.39-13.94,11.92-29.14,23.6-46.15,30.79-7.63,3.23-22.32,8.67-29.43,1.31-4.36-4.51-1.32-11.07,3.2-14.09,13.92-9.3,32.19.33,41.64,11.36,9.21,10.75,14,24.77,16.53,38.5,3.29,17.94.75,36.41,5.76,54.08,6.83,24.11,25.72,41.72,50.67,45.43a81,81,0,0,0,35-2.7c9.86-3,19.13-7.05,25.19-15.69,11.46-16.35,8.62-39.89-8.85-50.71a50.11,50.11,0,0,0-18.88-6.45c-3.78-.58-5.41,5.2-1.6,5.79,11.67,1.8,23.74,6.89,28.39,18.6,3.4,8.59,2.14,18.64-2.3,26.62-5.19,9.33-14.18,13.31-24.06,16.21a73.52,73.52,0,0,1-34.37,2c-26.88-5.2-42.75-27.2-46-53.52-1.16-9.51-.58-19.12-1.48-28.66a129.34,129.34,0,0,0-4.18-23.21c-3.47-12.21-9.17-24.15-18.14-33.3-10.31-10.52-25.79-17-40.38-12.27-6.71,2.17-12.78,7-14.06,14.24a13.94,13.94,0,0,0,8,15.07c9.72,4.65,21.92.9,31.2-3,15.16-6.34,28.78-16.13,41.5-26.41,10.3-8.33,19.81-18.67,32.07-24.21,4.51-2,10.75-3.94,15-.34s4.9,10.54,5,15.73c.32,18.91-7.16,38.34-15.9,54.78-10.65,20-25.8,39.15-46.19,49.86a64.84,64.84,0,0,1-27.22,7.43c-3.84.18-3.87,6.18,0,6Z"/><path class="cls-11" d="M103.09,395c11.89,8.16,24,16.11,36.23,23.89s24.47,15.49,36.88,22.94q37.1,22.59,75.11,43.58c25.32,14,50.47,28.36,76.18,41.69,12.75,6.87,25.75,13.25,38.64,19.87,6.42,3.36,13,6.41,19.48,9.63l19.52,9.59,0,0a2.39,2.39,0,0,1-2,4.35c-26.82-11.2-53.48-22.9-79.62-35.68-6.53-3.2-13.14-6.26-19.61-9.57l-19.45-9.91c-6.51-3.26-12.91-6.72-19.3-10.2s-12.82-6.89-19.09-10.59-12.61-7.27-18.87-11l-18.67-11.31c-6.25-3.73-12.36-7.68-18.54-11.51s-12.31-7.76-18.38-11.76c-12.19-7.94-24.23-16.11-36.2-24.39s-23.71-16.85-35.22-25.85A2.38,2.38,0,0,1,103,395Z"/><path class="cls-11" d="M641.23,162c6.4-11.88,12.58-23.89,19.43-35.55l5-8.8,5.31-8.65,5.32-8.65,5.62-8.47a272.39,272.39,0,0,1,24.76-32.5l3.49-3.8c1.14-1.29,2.49-2.41,3.72-3.63s2.5-2.4,3.81-3.56l4.13-3.3a42,42,0,0,1,4.42-3.06c.78-.47,1.48-1,2.32-1.43l2.52-1.23,1.26-.61c.44-.18.93-.32,1.39-.48a25.76,25.76,0,0,1,2.87-.85l1.57-.25a7.59,7.59,0,0,1,1.65-.14,9.53,9.53,0,0,1,4.2.72l-.54-.22a16.36,16.36,0,0,1,6.66,3.93,14.45,14.45,0,0,1,3.76,7,22.38,22.38,0,0,1,.36,7.12,38.71,38.71,0,0,1-1.15,6.46A82.35,82.35,0,0,1,749,73.9c-1.6,3.76-3.34,7.41-5.13,11l-5.43,10.6c-.9,1.75-1.77,3.48-2.58,5.2l-2.53,5.39c-3.44,7.24-7.13,14.31-10.87,21.32-7.48,14-15.18,27.8-21.88,41.91a189.16,189.16,0,0,0-8.83,21.34c-2.29,7.05-3.18,14.23.3,18.42a18.52,18.52,0,0,0,7.58,5.41,20.2,20.2,0,0,0,2.45,1l2.69,1c1.08.42,2.18.82,3.25,1.29l3.09,1.67A32.79,32.79,0,0,1,726.24,242a31.25,31.25,0,0,1-.86,14,32.27,32.27,0,0,1-2.77,6.51,20,20,0,0,1-1.9,3l-1,1.43c-.35.48-.65.8-1,1.21a202.46,202.46,0,0,1-16.51,17.88c-11.75,11.27-25.11,21.13-40.11,28.15-7.6,3.53-15.25,6-22.49,8.73s-14.07,5.8-19.54,10.15a32.61,32.61,0,0,0-6.93,7.49,20.76,20.76,0,0,0-3.64,8.77,12.06,12.06,0,0,0-.12,2.19l.18,2.25.51,2.13c.3.66.5,1.36.83,2a18.42,18.42,0,0,0,6.32,6.72c5.61,3.73,12.92,5.81,20.25,6.92l2.78.36,2.91.22,5.81.44,5.81.44c1.94.11,3.87.39,5.82.32a283.36,283.36,0,0,0,92.17-12.89,298.92,298.92,0,0,0,83.35-42.18,283.79,283.79,0,0,0,65.16-67.14l0,0a2.39,2.39,0,0,1,4,2.66,283.2,283.2,0,0,1-65.19,69.83,306.24,306.24,0,0,1-84.82,44.51,290.07,290.07,0,0,1-94.91,14.64c-2,.08-4-.17-6-.27l-6-.39-6-.39-3-.2-3.11-.37a76.14,76.14,0,0,1-12.38-2.72,48.34,48.34,0,0,1-12-5.5A28.34,28.34,0,0,1,602,362.52c-.58-1.1-1-2.3-1.48-3.46s-.62-2.42-.91-3.63-.25-2.44-.35-3.66a22.15,22.15,0,0,1,.17-3.74,30.87,30.87,0,0,1,5.1-13.09,43,43,0,0,1,9-10c6.94-5.59,14.8-9,22.32-11.88s15-5.34,21.76-8.52a133,133,0,0,0,19.66-11.49,158.56,158.56,0,0,0,17.7-14.63,204.23,204.23,0,0,0,15.78-16.91c.29-.36.67-.76.9-1.09l.7-1a11.56,11.56,0,0,0,1.31-2,21.94,21.94,0,0,0,1.92-4.36,21,21,0,0,0,.66-9.51,22.73,22.73,0,0,0-10.28-15.74l-2.13-1.18c-.74-.33-1.51-.6-2.27-.91l-.57-.23-.77-.28-1.53-.57a33.87,33.87,0,0,1-14.37-9.79,31.53,31.53,0,0,1-2-3.3,37.72,37.72,0,0,1-1.35-3.62,35.28,35.28,0,0,1-.66-3.69,33.42,33.42,0,0,1-.11-3.6,46.46,46.46,0,0,1,2.57-12.93,197.26,197.26,0,0,1,9.51-22.45c7-14.44,14.92-28.24,22.47-42.09,3.77-6.93,7.48-13.86,10.95-20.87L728.23,97c.91-1.85,1.84-3.64,2.77-5.4l5.54-10.46c3.55-6.93,7-14,8.94-21a31,31,0,0,0,1-5.2,14.83,14.83,0,0,0-.13-4.7c-.59-2.77-2.19-4.36-5.14-5.4l-.54-.22a.78.78,0,0,0,.24.11h-.07l-.2,0-.73,0a2.76,2.76,0,0,0-.86.07l-.92.13a18.9,18.9,0,0,0-2,.57c-.33.11-.67.18-1,.32l-1,.48-2,1c-.68.32-1.32.81-2,1.2A35.27,35.27,0,0,0,726.21,51L722.41,54c-1.23,1.05-2.4,2.19-3.61,3.29s-2.45,2.14-3.56,3.37l-3.39,3.59A278.17,278.17,0,0,0,687.15,95.5l-5.71,8.25L676,112.2l-5.42,8.46-5.16,8.64c-7,11.44-13.4,23.27-20,35l0,.07a2.38,2.38,0,0,1-4.17-2.3Z"/><path class="cls-11" d="M568.6,84.16c-20,37.17-37,76.07-48.51,116.51S502.42,283.06,504.5,324.8a305.65,305.65,0,0,0,3.17,31.1A285.55,285.55,0,0,0,514,386.45a250.4,250.4,0,0,0,22.88,57.68c1.26,2.23,2.59,4.5,3.91,6.62a41.61,41.61,0,0,0,4.22,5.68,17.08,17.08,0,0,0,4.73,3.86,6.55,6.55,0,0,0,2.16.71,4.6,4.6,0,0,0,.94,0l.24,0,.34-.09.68-.16c3.6-.8,6.69-3.73,9.07-7.66a52.06,52.06,0,0,0,5.33-13.49c2.53-9.76,3.54-20.17,4-30.56a305.08,305.08,0,0,0-.35-31.37v-.13a2.14,2.14,0,0,1,0-.23,239.41,239.41,0,0,1,3.07-27,262.26,262.26,0,0,1,5.88-26.42,197.5,197.5,0,0,1,9-25.55,166.07,166.07,0,0,1,12.79-23.94,2.39,2.39,0,0,1,4.08,2.48l-.05.09a160.88,160.88,0,0,0-11.62,23.52,208.44,208.44,0,0,0-8,25.06,255.58,255.58,0,0,0-5.16,25.84,233.43,233.43,0,0,0-2.39,26.11v-.36a312.93,312.93,0,0,1,1.07,32.18c-.28,10.77-1,21.61-3.58,32.46a59.51,59.51,0,0,1-6,16.08,30.43,30.43,0,0,1-5.83,7.33,21.07,21.07,0,0,1-8.84,4.84l-1.25.31-.63.15-.75.11a14.22,14.22,0,0,1-3,0,16.14,16.14,0,0,1-5.41-1.58,26.54,26.54,0,0,1-7.69-5.92,51.3,51.3,0,0,1-5.38-7c-1.52-2.35-2.91-4.63-4.29-7a218.33,218.33,0,0,1-14.22-29.23,255.87,255.87,0,0,1-10.15-30.79,292.8,292.8,0,0,1-6.37-31.73,316,316,0,0,1-2.84-32.18c-.23-5.39-.21-10.77-.22-16.13.15-5.38.23-10.76.6-16.12s.8-10.71,1.25-16.06c.64-5.33,1.17-10.67,2-16,1.48-10.62,3.56-21.15,5.89-31.59,1.29-5.2,2.44-10.42,3.92-15.57l2.12-7.74,2.34-7.67a502.8,502.8,0,0,1,22.69-59.85l6.81-14.46c2.4-4.75,4.74-9.55,7.18-14.27l15.34-28a2.38,2.38,0,0,1,4.18,2.27Z"/><path class="cls-11" d="M351.54,732.1a62.58,62.58,0,0,0,21.71-4.92,79.93,79.93,0,0,0,19.18-11.68c11.74-9.51,21.31-21.66,29-34.77a151.47,151.47,0,0,0,16.95-42.12c1.63-7.34,2.63-14.88,2.08-22.08a25,25,0,0,0-2.6-9.76,8.35,8.35,0,0,0-6.58-4.57c-2.9-.29-6.28.61-9.51,2a57.07,57.07,0,0,0-9.46,5.45c-6.17,4.19-11.61,9.45-17.66,14.58C382.7,634.38,370.13,644,356,651.44c-7.07,3.7-14.56,6.92-22.84,8.44a34.18,34.18,0,0,1-13.08,0,20.31,20.31,0,0,1-6.68-2.81,15,15,0,0,1-5.1-5.93,14.58,14.58,0,0,1-1.27-7.76,16.85,16.85,0,0,1,2.51-7.12,21.1,21.1,0,0,1,11.11-8.52,36.34,36.34,0,0,1,25.59.53,50.09,50.09,0,0,1,20.22,14.83,71.22,71.22,0,0,1,7.09,10.14,88.81,88.81,0,0,1,5.27,11c5.91,15.17,8,31.29,8.19,47.13,0,15,2.63,30,10.17,42.3a50.79,50.79,0,0,0,14.59,15.33,54.28,54.28,0,0,0,19.63,8.19c14.12,2.92,29.28.92,42.72-4.68q1.28-.5,2.51-1.1c.8-.39,1.7-.76,2.43-1.17a27.09,27.09,0,0,0,4.08-2.66,26.26,26.26,0,0,0,6.48-7.32l1.25-2.19c.4-.74.7-1.56,1.05-2.34a46,46,0,0,0,1.77-4.89,62.48,62.48,0,0,0,2-10.54,99.49,99.49,0,0,0-.4-22.06c-.47-3.64-1.1-7.48-1.73-11.27l-2-11.39c-1.35-7.59-2.79-15.18-4.27-22.78s-3-15.24-4.32-23a340.05,340.05,0,0,1-4.91-47,200.39,200.39,0,0,1,.75-23.86l.28-3,.4-3c.27-2,.52-4,.92-6s.67-4,1.19-5.94l1.35-5.66c.79-3.61,1.57-7.57,2.5-11.42a121.29,121.29,0,0,1,3.33-11.7,54.59,54.59,0,0,1,2.47-6,22.37,22.37,0,0,1,4.31-6.24,13.31,13.31,0,0,1,1.94-1.55,10.08,10.08,0,0,1,2.79-1.21,9.4,9.4,0,0,1,3.33-.27,12.26,12.26,0,0,1,1.56.33c.25.07.51.14.75.22l.63.28c.42.2.83.41,1.23.63s.65.45,1,.69a11.41,11.41,0,0,1,1.66,1.43l.72.73.5.56,1,1.12c2.63,3,5.22,6.2,7.55,9.19a27.23,27.23,0,0,0,7.23,6.9c1.44,1,3,1.92,4.64,2.85l2.46,1.38c.83.47,1.56.75,2.34,1.14s1.52.76,2.31,1.07l2.38.78,1.19.4,1.22.23,2.43.47a31.48,31.48,0,0,0,19.28-4.25,50,50,0,0,0,8.58-6.12,67.43,67.43,0,0,0,7.43-7.86,90.12,90.12,0,0,0,11.5-18.82c3.22-6.77,5.9-13.9,8.49-21.14s5.08-14.64,7.93-22,5.85-14.56,9.28-21.71a148.78,148.78,0,0,1,11.94-20.78,88.37,88.37,0,0,1,16.41-18,58.8,58.8,0,0,1,4.91-3.72l2.54-1.75,2.67-1.56c.91-.52,1.72-1,2.73-1.55s2-.93,2.92-1.34c1.92-.8,3.81-1.49,5.7-2.15a232,232,0,0,1,22.84-6.32,275.37,275.37,0,0,1,46.69-6.73,127.12,127.12,0,0,1,23.95.87,58.38,58.38,0,0,1,12,2.95,29.13,29.13,0,0,1,11.19,7,19.86,19.86,0,0,1,5.32,12.82,32.67,32.67,0,0,1-2.25,12.78,30.92,30.92,0,0,1-6.8,11,43.33,43.33,0,0,1-10,7.69c-7.2,4.09-14.89,6.56-22.54,8.55s-15.37,3.39-23,4.78-15.2,2.69-22.4,4.85c-7.47,2.19-14.91,4.21-22.15,6.67a115,115,0,0,0-20.77,9,66,66,0,0,0-9.16,6.35,100.36,100.36,0,0,0-8.22,7.74,114.23,114.23,0,0,0-13.83,18,90.69,90.69,0,0,0-5.32,10,58.45,58.45,0,0,0-3.53,10.52v.06a2.39,2.39,0,0,1-4.67-1,63.16,63.16,0,0,1,3.7-11.55,95.7,95.7,0,0,1,5.5-10.62,119.38,119.38,0,0,1,14.24-19,105.63,105.63,0,0,1,8.6-8.31,71.78,71.78,0,0,1,9.84-7,120.74,120.74,0,0,1,21.69-9.78c7.42-2.62,14.92-4.79,22.31-7,7.65-2.37,15.4-3.73,23-5.21S740.08,441,747.42,439s14.5-4.4,20.77-8.05,11.42-8.65,13.54-15.16a25.68,25.68,0,0,0,1.73-10,12.46,12.46,0,0,0-3.44-8.18,21.92,21.92,0,0,0-8.42-5.07,51.06,51.06,0,0,0-10.53-2.46,119.7,119.7,0,0,0-22.48-.59,267.61,267.61,0,0,0-45.23,7,224.24,224.24,0,0,0-21.92,6.28c-1.76.63-3.51,1.28-5.16,2-.82.36-1.64.72-2.35,1.1s-1.55.91-2.31,1.35l-2.34,1.39L657,410.2a50.59,50.59,0,0,0-4.33,3.33c-11.28,9.36-19.25,22.38-25.68,36-3.22,6.86-6.08,14-8.81,21.13s-5.12,14.45-7.7,21.82-5.31,14.8-8.71,22.07a99.75,99.75,0,0,1-12.58,20.85,77.18,77.18,0,0,1-8.48,9.08,59.79,59.79,0,0,1-10.26,7.42,41.5,41.5,0,0,1-25.36,5.61l-3.29-.59-1.64-.31-1.58-.5-3.15-1c-1-.39-2-.89-3-1.34s-2-.92-2.89-1.4L527,550.95c-1.75-1-3.51-2-5.28-3.21a36.53,36.53,0,0,1-5.27-4.12,47.51,47.51,0,0,1-4.33-4.85c-2.45-3.11-4.74-5.91-7.27-8.73l-.94-1-.47-.52-.31-.29a2.46,2.46,0,0,0-.54-.47l-.2-.16a.08.08,0,0,1-.07,0l0,0,.05,0s.08,0,.14,0,.34,0,.46,0,.13,0,.13-.06c-.07.12-.14.07-.3.28a13.26,13.26,0,0,0-2.17,3.34,44.4,44.4,0,0,0-2,4.78c-1.18,3.4-2.15,7-3,10.66s-1.6,7.34-2.47,11.31l-1.35,5.65c-.48,1.79-.73,3.64-1.09,5.46s-.6,3.67-.85,5.53l-.38,2.78-.26,2.8a190,190,0,0,0-.7,22.61,329.89,329.89,0,0,0,4.76,45.49c1.27,7.55,2.79,15.09,4.27,22.74s2.93,15.27,4.3,22.95c.69,3.84,1.32,7.69,1.94,11.54s1.22,7.67,1.72,11.73a109.6,109.6,0,0,1,.25,24.36,72.48,72.48,0,0,1-2.39,12.28,55.93,55.93,0,0,1-2.22,6c-.46,1-.84,2-1.36,2.95l-1.64,2.85a36.21,36.21,0,0,1-8.92,9.91,37,37,0,0,1-5.68,3.62c-1,.52-1.88.88-2.82,1.33s-1.87.85-2.83,1.22c-15.16,6.18-32.13,8.37-48.44,4.9a63.72,63.72,0,0,1-22.95-9.79,60.09,60.09,0,0,1-17.12-18.23,74.33,74.33,0,0,1-8.92-23,115.83,115.83,0,0,1-1.82-12c-.39-4-.46-8.18-.47-12-.07-15.1-2-30.27-7.28-44.1a80.33,80.33,0,0,0-4.67-10,62.82,62.82,0,0,0-6.15-8.94A41.83,41.83,0,0,0,343.29,636a28.2,28.2,0,0,0-19.9-.63,15.17,15.17,0,0,0-4.15,2.09,11,11,0,0,0-3,3.1,7.67,7.67,0,0,0-.84,7.29,7.08,7.08,0,0,0,2.39,2.79,12.6,12.6,0,0,0,4,1.66,26.69,26.69,0,0,0,10,0c7-1.22,14-4.08,20.65-7.53,13.38-6.93,25.72-16.17,37.47-26,5.82-4.85,11.6-10.38,18.32-14.88a63.87,63.87,0,0,1,10.71-6c3.85-1.63,8.17-3,13-2.48a15.06,15.06,0,0,1,7,2.64,16.42,16.42,0,0,1,4.79,5.49,31.42,31.42,0,0,1,3.3,12.56,82.58,82.58,0,0,1-2.5,24,157.51,157.51,0,0,1-18.16,43.67c-8.14,13.5-18.21,26-30.72,35.93a85.09,85.09,0,0,1-20.57,12.18,67.47,67.47,0,0,1-23.48,5,2.38,2.38,0,0,1-.16-4.76Z"/><path class="cls-11" d="M954.7,686.53c-7.75.44-15.51.93-23.27,1.13s-15.53.43-23.3.53-15.54-.06-23.31-.13c-7.76-.24-15.54-.32-23.3-.69s-15.53-.68-23.28-1.29-15.51-1-23.25-1.81-15.49-1.36-23.21-2.29-15.46-1.68-23.15-2.84c-15.42-2-30.75-4.7-46-7.63l-22.85-4.65L677,661.67q-45.34-10.82-89.64-25.29a2.39,2.39,0,0,1,1.34-4.58h0c29.89,7.92,59.92,15.14,90.14,21.37s60.7,11,91.18,15.53c7.61,1.2,15.27,2.1,22.9,3.17s15.29,1.91,23,2.79c15.32,1.76,30.68,3,46.06,4.19,7.69.64,15.39,1,23.09,1.48,7.7.33,15.41.71,23.12.92,15.42.54,30.86.6,46.31.53h0a2.38,2.38,0,0,1,.15,4.75Z"/></svg>