<?xml version="1.0" encoding="utf-8"?>
<!-- Generator: Adobe Illustrator 22.0.0, SVG Export Plug-In . SVG Version: 6.00 Build 0)  -->
<svg version="1.1" id="Layer_1" xmlns="http://www.w3.org/2000/svg" xmlns:xlink="http://www.w3.org/1999/xlink" x="0px" y="0px"
	 viewBox="0 0 1000 1000" style="enable-background:new 0 0 1000 1000;" xml:space="preserve">
<style type="text/css">
	.st0{fill:#60698C;}
	.st1{fill:#4A588C;}
	.st2{fill:#00C6A6;}
	.st3{fill:#00B394;}
	.st4{fill:#87B5FF;}
	.st5{fill:#5E9CFF;}
	.st6{fill:#FFFFFF;}
	.st7{fill:#D5DAED;}
	.st8{fill:#FFEDEF;}
	.st9{fill:#FFDEE2;}
	.st10{fill:#FF4D62;}
	.st11{fill:#E04456;}
	.st12{fill:#233940;}
</style>
<g>
	<path class="st0" d="M189.8,523C221.4,688.2,361.1,811,529,820.9c3.7,0.2,7.4,0.4,11.1,0.7c68.6,4.1,137.5,9.9,206.3,10.9
		c7.2-8.2,14.2-16.7,21-25.3c1.9-2.5,3.9-5,5.8-7.5c1.6-2.1,3.2-4.2,4.7-6.4c13.8-19,26.3-39,37.3-59.8
		c14.7-28.1,26.5-57.6,34.5-88.2c48.1-183.6-102.3-373.1-276.9-414.5c-81.3-19.3-158.2-4.4-236.8,18.8
		c-22.7,6.7-44.9,14.9-66.3,24.5c-26.2,11.8-51.1,25.9-74.1,42.3c-1.4,1-2.7,2-4.1,3c-0.7,0.5-1.3,1-2,1.5c-1,0.7-2,1.5-3,2.2
		c-1.3,1-2.6,1.9-3.9,3c-1.6,1.2-3.3,2.5-4.9,3.8c-2.1,1.7-4.2,3.4-6.3,5.2c-1.5,1.2-3,2.5-4.4,3.8c-1.4,1.2-2.8,2.4-4.1,3.6
		c-0.8,0.7-1.5,1.3-2.3,2c-1.8,1.6-3.6,3.3-5.4,4.9c-2.2,2.1-4.4,4.2-6.6,6.4c6.3,24.3,15,48.1,21.1,72.3
		C177.8,459.5,184.3,491.2,189.8,523z"/>
	<path class="st1" d="M815.2,733.5c-10.9,20.8-23.4,40.8-37.3,59.8c-1.5,2.1-3.1,4.3-4.7,6.4c-1.9,2.5-3.8,5-5.8,7.5
		c-13.7,17.5-28.3,34.1-43.8,49.7c-6.5,6.5-13.1,12.8-19.8,19c-2.7,2.4-5.4,4.9-8.2,7.3c-2.8,2.4-5.5,4.7-8.3,7.1
		c-2.8,2.3-5.6,4.6-8.5,6.9s-5.7,4.5-8.6,6.7c-2.9,2.2-5.8,4.3-8.8,6.5c-54.5,39.2-117.2,66.3-187.2,75.7
		c-139.3,18.7-286.6-47.9-364.6-164.7c-68.2-102-80.8-237.9-36-351.7c18.6-47.2,46.8-87,81.7-119.9c1.8-1.7,3.5-3.3,5.4-4.9
		c0.7-0.7,1.5-1.4,2.3-2c1.4-1.2,2.7-2.4,4.1-3.6c1.5-1.3,2.9-2.6,4.4-3.8c2.1-1.8,4.2-3.5,6.3-5.2c1.6-1.3,3.2-2.6,4.9-3.8
		c1.3-1,2.6-2,3.9-3c1-0.8,2-1.5,3-2.2c0.7-0.5,1.3-1,2-1.5c1.3-1,2.7-2,4.1-3c6.1,10.2,14.1,19.2,24.3,26.2
		c21.9,15.1,49.1,18.2,74.7,12.7c35.1-7.6,69.6-17.8,105.4-8.1c16.4,4.5,34.2,11.4,46.7,23.2c10,9.4,17,21.5,25.3,32.3
		c20.6,26.8,49.2,41.5,79.8,54.5c27.8,11.8,55,25.6,79.5,43.2c24.8,17.9,48.4,40.6,59.2,70c9.4,25.8,11.6,54.1,23.9,78.9
		c6,12.2,14.6,22.8,25.5,31c13.4,10.1,29.3,14.3,43.6,22.6C796.1,710.3,807,721.2,815.2,733.5z"/>
	<path class="st2" d="M767.4,807.2c-1.9,2.4-3.7,4.7-5.6,7.1c-1.9,2.3-3.8,4.6-5.7,6.9c-1.3,1.6-2.6,3.1-4,4.7
		c-1.6,1.9-3.2,3.8-4.9,5.6c-1.3,1.5-2.6,3-3.9,4.4c-0.4,0.5-0.8,0.9-1.2,1.4c-1.6,1.8-3.2,3.6-4.9,5.4c-0.8,0.8-1.5,1.7-2.4,2.5
		c-1.2,1.3-2.3,2.5-3.5,3.8c-1.1,1.2-2.2,2.3-3.4,3.5c-1,1.1-2.1,2.2-3.2,3.2c-0.8,0.8-1.6,1.7-2.5,2.5c-1.5,1.5-3,3-4.5,4.4
		c-1.7,1.7-3.4,3.3-5.1,4.9c-1.8,1.8-3.7,3.5-5.5,5.2c-2.2,2-4.3,4-6.6,6c-2.2,2-4.4,3.9-6.7,5.8c-1.7,1.4-3.3,2.9-5,4.3
		c-0.6,0.5-1.1,1-1.7,1.4c-0.2,0.2-0.5,0.4-0.7,0.6c-1.6,1.3-3.2,2.7-4.9,4c-2.8,2.2-5.6,4.4-8.4,6.6c-2.3,1.8-4.6,3.5-6.8,5.2
		c-2.4,1.8-4.7,3.5-7.1,5.2c-0.5,0.3-0.9,0.7-1.4,1c-19.8,14-40.7,26.3-62.5,36.8c-37.4,18-77.9,30.5-121.1,36.3
		c-42.8,5.7-86.4,3.4-128.5-5.9c-58.2-12.9-113.5-39.3-160.1-76.5c-3.5-2.8-7-5.7-10.4-8.6c-8.9-7.6-17.4-15.6-25.5-24
		c-14.8-15.3-28.2-31.8-40.1-49.6c0-0.1-0.1-0.1-0.1-0.1c-2.9-4.4-5.7-8.8-8.4-13.2c-11.4-18.9-21.1-38.8-28.9-59.4c0,0,0-0.1,0-0.1
		C52.9,697.3,44.8,641.9,48,587.2c0.6-10.8,1.7-21.6,3.2-32.4c0.7-4.7,1.4-9.3,2.2-13.9c4.4-24.4,11.1-48.4,20.2-71.4
		c1.1-2.7,2.2-5.4,3.3-8c0.5-1.3,1.1-2.5,1.6-3.8c2.9-6.6,6-13.1,9.3-19.4c5-9.6,10.5-18.9,16.3-27.9c14.7-22.5,32-42.7,51.2-60.9
		c38.1,10.5,74.5,23.1,109,37.3c1.1,0.4,2.1,0.9,3.2,1.3c3.1,1.3,6.1,2.6,9.2,3.8c1.9,0.8,3.9,1.6,5.8,2.5
		c15.4,6.7,30.4,13.6,45.1,20.9c0.2,0.1,0.3,0.2,0.5,0.2c16,7.9,31.5,16.1,46.6,24.5c5.5,3.1,11,6.2,16.4,9.3
		c15.5,9,30.4,18.3,45,27.7c1.7,1.1,3.4,2.2,5.1,3.3c7,4.6,13.9,9.3,20.6,13.9C530.3,542,587.5,593.2,633.1,640
		c2.3,2.4,4.6,4.8,6.9,7.1C724.8,735.7,767.4,807.2,767.4,807.2z"/>
	<path class="st3" d="M313.3,898.7c5.4-0.9,10.8-1.1,16.3-0.6c-1.3-9.9-3-19.8-5.9-29.5c-4.2-14-10.6-27.2-18.9-39.1
		c-6.6,0.3-13.3,0.5-19.9,0.8c-7.2,0.3-15.1,0.9-21.9-2.1c-8-3.5-9.3-12.2-11.1-19.7c-2.9-11.8-7.8-22.7-15.1-32.1
		c-1.9-2.4-4-4.8-6.2-7c-22-21.7-54.5-28.4-83.2-16.5c-4.6,1.9-8.9,4.2-12.9,6.8c-17.2,11.3-28.5,28.7-33.3,48.4
		c2.7,4.5,5.5,8.9,8.4,13.2c0,0,0,0.1,0.1,0.1c11.8,17.7,25.3,34.3,40.1,49.6c8.1,8.4,16.7,16.4,25.5,24c-0.7-0.6-0.4-6-0.5-7.1
		c-0.3-2.8-0.7-5.6-1.3-8.4c-1.1-5.5-2.6-10.8-4.5-16c-3.6-10-9-19.2-13.6-28.7c-3.5-7.3-6.4-15.1-6.5-23.2c0-1.7,0.1-3.4,0.3-5
		c1-6.4,4-12.6,9.2-16.4c2.1-1.6,4.6-2.7,7.3-2.8c4.2-0.2,8.3,2.7,9.7,6.6c0.8,2.4,0.7,5,0.6,7.6c-0.6,11.3-3.2,22.8-2.3,34.1
		c0.9,10.8,5.6,21.1,11.9,29.7c12.2,16.7,30.1,31.1,49,39.5c1.1,0.5,2.2,1,3.4,1.4c19.5,7.7,41.2,6.1,60.2-2.6
		C302.9,901.3,307.9,899.6,313.3,898.7z"/>
	<path class="st4" d="M595.3,949.6c-37.4,18-77.9,30.5-121.1,36.3c-42.8,5.7-86.4,3.4-128.5-5.9c-7.8-1.7-10.6-35.4-11.6-41.6
		c-2.9-17.7-4.5-35.7-4.9-53.6c-0.2-7.2,3.6-13.1,11.7-11.6c25.7,4.7,52.7,7.5,77.8,14.6c16.8,4.8,26,16.7,32.8,31
		c0.7-0.1,1.3-0.1,2-0.2c12.5,11.8,29.2,19.3,46.3,19.2c28.7-0.2,57.8-21,84.7-1C589.6,940.4,593.1,944.8,595.3,949.6z"/>
	<path class="st3" d="M687.2,890.3c-0.2,0.2-0.5,0.4-0.7,0.6c-1.6,1.3-3.2,2.7-4.9,4c-2.8,2.2-5.6,4.4-8.4,6.6
		c-2.3,1.8-4.6,3.5-6.8,5.2c-2.4,1.8-4.7,3.5-7.1,5.2c-0.5,0.3-0.9,0.7-1.4,1c-20.2-12.4-35.1-33-39.5-56.7
		c-1.3-7.3-1.9-14.8-1.1-22.2c1-9.3,4.7-19.2,3.7-28.6c-0.9-8-6.6-15.7-14.7-9.3c-7,5.5-8.4,16-10.6,24.1
		c-7.7,27.5-22.1,53.6-46.2,69.9c-26.6,18.1-61.7,23.6-92.9,28.1c-1,0.1-2,0.3-3,0.4c-7.4-7-13.2-15.5-16.9-24.8
		c-9-23.2-0.6-47.1,4.5-70.8c27.1-2.4,53.7-7.7,76.8-23.7c29.3-20.4,46.7-52.3,73.6-74.9c24.7-20.7,62.7-23.3,78.8,9
		c6.7,13.4,8.5,28.4,10,43.1c2.1,20.7,3.7,41.5,4.9,62.3C686.2,855.7,686.9,873,687.2,890.3z"/>
	<path class="st5" d="M329.5,898.1c7.8,0.6,15.5,2.4,22.8,5.1c3.5,1.3,7,2.8,10.3,4.5c19.1,9.7,40.2,14.7,61.5,13.5
		c9.8-0.6,19.6-1.5,29.5-2.8c-7.4-7-13.2-15.5-16.9-24.8c-9-23.2-0.6-47.1,4.5-70.8c-10.3,0.9-20.7,1.4-30.9,1.8
		c-35.1,1.6-70.3,3.3-105.4,4.8c8.3,12,14.7,25.2,18.9,39.1C326.5,878.2,328.2,888.1,329.5,898.1z"/>
	<path class="st4" d="M444.4,798.4c-0.1,8.1-1.5,16.2-3.3,24.4c-10.3,0.9-20.7,1.4-30.9,1.8c-35.1,1.6-70.3,3.3-105.4,4.8
		c-8-11.6-17.7-22.1-28.7-31c-12-9.7-25.3-16.8-39.4-22c-15.2-5.6-31.4-9.1-47.7-11.2c-17.6-2.4-36.1-3.6-54.6-5.5
		c-21.2-2.1-42.3-5.1-62.2-11.2C52.9,697.3,44.8,641.9,48,587.2c0.6-10.8,1.7-21.6,3.2-32.4c0.7-4.7,1.4-9.3,2.2-13.9
		c4.4-24.4,11.1-48.4,20.2-71.4c1.1-2.7,2.2-5.4,3.3-8c0.5-1.3,1.1-2.5,1.6-3.8c2.9-6.6,6-13.1,9.3-19.4c5-9.6,10.5-18.9,16.3-27.9
		c6.5,1.8,13,3.6,19.6,5.4c29.9,8.3,64.4,13.9,90.9,30.9c23.7,15.2,32.8,38.7,36.2,65c0.4,2.8,0.6,5.7,0.9,8.6
		c1.3,15.2,1.5,30.5,4.8,45.5c3.2,14.5,8.3,28.5,15.3,41.6c10.5,19.6,24.8,37,42,50.8c5.5,4.4,11.4,8.5,17.5,12.1
		c27.2,16.2,58.8,25.6,81.5,48.7C433.1,740,444.9,769.2,444.4,798.4z"/>
	<path class="st6" d="M646.5,654c2.9-5.1,9.1-7.4,14.6-3c6.3,5.1,9,14.4,13.1,21.1c10.4,17,27.8,24.1,43.9,34.3
		c27.3,17.3,41.1,50.4,37,81.8C737.6,762.2,701.4,712.2,646.5,654z"/>
	<path class="st3" d="M398.4,542.3c13.8-20.9,29.4-40.5,46-59.6c-1.1-0.7-2.2-1.5-3.4-2.2c-1.7-1.1-3.4-2.2-5.1-3.3
		c-14.5-9.5-29.5-18.7-45-27.7c-5.4-3.2-10.9-6.3-16.4-9.3c-8.2,4-15.9,9.3-22.6,15.4c-11.4,10.3-20,22.9-28.9,35.4
		c-4.2,5.8-8.8,12-14.8,16c-6.9,4.7-13.7,3.9-21.4,2.1c-4.8-1.2-9.6-2.4-14.4-2.7c-3.6-27.1-11.6-54.3-6.2-81.4
		c2.4-11.9,7.5-22.6,16.1-30.4c-1.9-0.8-3.8-1.7-5.8-2.5c-3-1.3-6.1-2.6-9.2-3.8c-1.1-0.4-2.1-0.9-3.2-1.3
		c-5.4,6.1-9.9,13.4-13,22.4c-6,16.9-6,35-3.9,52.6c1.4,11.9,3.6,23.7,5.4,35.6c0.9,5.9,1.6,11.8,2.1,17.8c0.2,2.8,0.4,5.6,0.5,8.4
		c0,2.8-0.4,5.7,0.3,8.4c0.6,2.7-0.4,5.5-2.7,7c0,0,0,0,0,0c0.7,9,1.5,18,3.5,26.9c3.2,14.5,8.3,28.5,15.3,41.6
		c10.5,19.6,24.8,37,42,50.8c9.1-5.3,17.8-10.3,23.7-15.3c19.3-16.5,27-39.5,38.1-61.5C382.4,567.9,390.1,554.9,398.4,542.3z"/>
	<path class="st5" d="M367.8,765.6c-3.7-12.5-15.5-21.5-26.2-27.8C330,731,317,727,305,720.9c-6.2-3.2-12.3-6.8-17.4-11.7
		c-0.8-0.8-1.6-1.6-2.3-2.6c-7.6-9.4-6.4-23.2,2.8-31.1c0.1-0.1,0.1-0.1,0.2-0.2c2.4-2,23.6-18.7,25.6-17.1
		c-17.3-13.8-31.5-31.2-42-50.8c-7-13.1-12.1-27.1-15.3-41.6c-1.9-8.7-2.8-17.5-3.4-26.4c-9.9,9.6-11.8,21.5-14.4,35.2
		c-1.5,8-4.7,17.2-13.7,19.1c-5.8,1.2-15.9-0.8-17-7.9c-1.2-7.9,8.1-13.4,11.4-19.5c8.5-16.3-8.1-34-21.8-40.3
		c-10.7-4.9-22.4-7.1-33.3-11.3c-11.2-4.3-20.5-10.8-29.6-18.5c-9.9-8.4-18.6-13.1-31.6-14.9c-9.6-1.3-21.4-3.3-30.8-8.2
		c-8.3,21.9-14.6,44.6-18.7,67.6c-0.8,4.6-1.6,9.3-2.2,13.9c-1.5,10.7-2.6,21.5-3.2,32.4c16.5,1.9,30.6,15.8,41.2,28.7
		c13.4,16.4,25.5,34.7,44.5,45.1c9.1,5,18.7,7.2,28.9,8.4c11.2,1.3,23.5,1,33.8,6.2c13.5,6.9,19.3,20.6,22.1,35.1
		c-1.7,9.6,0.4,20.5,3.1,29.7c0.3,0.9,0.7,1.8,1.2,2.5c1.3,23.3,20.7,40.8,43.3,47.3c15.1,4.4,31.2,4.9,46.7,6.2
		c13.1,1.1,29.1,4.9,41.7-0.5C366.4,791,371.4,777.8,367.8,765.6z M320.7,786.2c-20.3-2.2-35.4-12.1-52.4-23.6
		c-17.1-11.5-42.5-29.3-30.1-51.1c4.8-8.4,14,0.5,18.1,6.4c1.3,1.9,3.1,3.2,4.9,3.8c10.3,3.5,20.6,7.1,30.1,12.4
		c7,4,14.6,7.3,22.3,10.6c5.5,2.3,10.9,4.9,16.2,7.9c6.8,3.8,21.2,11.6,20.7,21.2C349.7,786,335.7,787.8,320.7,786.2z"/>
	<path class="st6" d="M724.4,687.6c-10.2-6-22.2-11-29.8-20.6c-7.1-8.9-10-20.4-18.2-28.6c-12.2-12-31.9-10.2-42.1,1.5
		c-3.2,3.6-5.4,8.2-6.2,13.5c-0.1,0.4-0.1,0.8-0.1,1.2c-7.5,5.2-13.8,11.6-18.8,18.8c-2.2-5.5-9.8-9.3-15.5-3.9
		c-28.9,27.1-58.4,54.1-91.9,75.6c-28,18-59,39.6-93.7,39.4c-10.3-0.1-20.9-2.8-29-9.2c-7.7-6.1-12.3-15.1-19.8-21.4
		c-8.8-7.4-20.2-10.8-30.5-15.3c-17.4-7.6-37.5-12.7-51.5-26.3c-20.6-20,0.2-43.9,20.5-54c23.6-11.8,31.6-32.4,44.3-55.5
		c17.5-31.8,22.6-72.6,51.6-94.6c10.9-8.2,22.4-15.4,34.3-22.1c9.3-5.3,19.3-9.5,23.4-20.2c4.8-12.7,0.6-26.5-7.6-36.8
		c-9.5-11.8-23.5-17.8-37.4-22.8c-16.7-6-33.4-11.7-50.1-17.5c-26-9.1-60.9-26.1-85.7-5.3c-1.3,1-2.5,2.2-3.6,3.3
		c-17.4,18.2-14.9,47.4-13,70.6c1.3,16,2.7,31.9,4.4,47.9c1.6,15.2,4.6,30-1.7,44.6c-4,9.2-10.3,16.9-15.3,25.5
		c-4.4,7.6-9.4,15.7-17.5,19.8c-10,5.1-22.5,2.2-29.4-6.6c-7.1-9.2-5-21.1-7.7-31.7c-2.4-9.3-12-18.5-20.6-14.2
		c-3.4,1.7-5.7,5.2-9.6,6c-1.6,0.3-3.2-0.1-4.4-1.2c-1.7-1.7-1.1-3.6-0.6-5.4c2.9-9.1,7.1-19.5,17.7-20.5c5.1-0.5,10,1.5,13.9,4.7
		c8.3,6.9,14,16.9,15.7,27.6c0.9,5.6,0.7,11.5,2.1,17c0,0.1,0,0.1,0,0.2c2.2,8.5,13.9,9.5,17.8,1.6c6.6-13.5,7.1-30,0.5-43.5
		c-8.5-17.6-28.4-28.9-47.9-27.4c-14.6,1.1-29.8,8.6-43,2.4c-8.6-4-13.7-12.8-18.3-21.1c-4.6-8.3-9.7-17.1-18.2-21.1
		c-4.7-2.3-10.4-2.6-16.6-1.5c-1.1,2.6-2.3,5.3-3.3,8c-9.1,23.2-15.9,47.3-20.3,71.8c-0.8,4.7-1.6,9.3-2.3,14
		c22.7,5.3,43.1,11.9,47.5,19.3c9.7,16.3,16.1,34.5,27.1,49.9c17,23.8,44.1,39.1,72.8,44.9c4.8,1,8.4,4.9,8.8,9.7
		c0.6,6.9,0.4,17.5-3.5,29.7l-0.2,0.7c-4,12.4-15.8,20.3-28.8,19.6c-31.2-1.6-62.7,7.9-92.3,17.4c-3.3,1.1-6.7,2.2-10.1,3.4
		c9.7,25.6,22.2,50.2,37.5,73c0,0,0,0.1,0.1,0.1c11.9,17.8,25.4,34.5,40.3,49.8c15.5-15.5-17.9-46.1-3.4-68.9
		c0.5-0.7,0.9-1.4,1.5-2.1c1.8-2.4,4-4.4,6.4-6.1c0,0,0,0,0,0c6.1-4.1,13.7-5.7,21.5-3.8c0.3,0.1,0.5,0.1,0.8,0.2
		c2.8,0.8,5.6,2.1,8.4,3.9c0.1,0,0.1,0.1,0.2,0.1c6.6,4.5,1.7,9.1-0.6,15.7c-0.2,0.5-0.4,1.1-0.5,1.6c-3.4,10.5-5.4,22.7-0.2,33.8
		c6,12.9,19.7,27,32.3,31.6c13.7,5,28.8-2.7,42.8-5.1c16.2-6.2,33.2-10.9,50.7-10.3c19.9,0.7,38.3,9.2,56.4,16.9
		c39.1,16.5,76.3,17.9,116.7,6.5c21.9-6.2,45.8-12.1,63-27.9c20.7-19.1,24.6-46.2,32.8-71.7c8.5-26.3,28-49.8,51.1-64.6
		c5.3-3.4,11.3-6.4,17.4-5.5c32.5,4.9,22.6,56.3,14.5,75.9c-10.7,26-28.1,51.7-25.1,80.8c1.9,18.6,11.8,32.2,25.5,40.1
		c2.4-1.7,4.8-3.4,7.2-5.2c2.3-1.7,4.6-3.4,6.9-5.2c2.8-2.2,5.7-4.4,8.5-6.6c1.6-1.3,3.3-2.6,4.9-4c0.8-0.7,1.6-1.3,2.4-2
		c1.7-1.4,3.4-2.9,5.1-4.3c2.2-1.9,4.5-3.9,6.7-5.9c2.2-2,4.4-4,6.6-6c1.9-1.7,3.7-3.5,5.6-5.2c2.3-2.2,4.6-4.4,6.9-6.7
		c0.9-0.8,1.8-1.7,2.7-2.6c0.9-0.9,1.8-1.8,2.6-2.6c1.1-1.1,2.2-2.2,3.2-3.3c1.1-1.2,2.3-2.3,3.4-3.5c1.2-1.3,2.4-2.5,3.6-3.8
		c0.8-0.8,1.6-1.7,2.4-2.5c1.7-1.8,3.3-3.6,4.9-5.4c0.4-0.5,0.8-0.9,1.2-1.4c1.3-1.5,2.6-3,4-4.5c1.7-1.9,3.3-3.8,4.9-5.7
		c1.4-1.6,2.7-3.1,4-4.7c1.9-2.3,3.8-4.6,5.7-7c3.4-0.3,6.7-2.3,8.1-6.5C786.7,762.6,765.8,711.8,724.4,687.6z M330,799.6
		c-13.7-2.3-27.2-6.5-40.1-12.5c-17.5-8.1-31-11-43.4-25c-0.2-0.3-0.5-0.6-0.7-0.8c-16.9-18.7-24.9-43.5-22.6-68.6
		c0.4-3.9,0.6-7.8,0.6-11.6c0.1-5.5,4.4-10,9.9-10.5c6.3-0.5,11.7,4.3,12.1,10.6c1.5,24.3,14.8,47.5,38.9,60
		c20.6,10.7,44.5,13.6,60.3,32c0.1,0.1,0.2,0.2,0.2,0.2C354.8,784.7,344.7,802.1,330,799.6z"/>
	<path class="st6" d="M762.7,465.2c8.7-68.1-42.9-107-95.8-107c-52.9,0-103.9,67.7-103.9,120.6s35.2,88.9,88.1,88.9
		C716.9,567.7,756,517.7,762.7,465.2z"/>
	<path class="st7" d="M394.9,576.4c-29.2-0.8-41.7-17.3-41.7-17.3c-15,14.5-33.3,5.7-33.3,5.7c-11,13.6-37,24.4-37,24.4
		c-0.4-24.5,21.8-50.3,21.8-50.3c-5.7-6.3-11.3-16.4-16.7-28.9c-27.4-63.1-49.6-186.7-49.6-186.7l54.2-45.4c0,0,76.5-75.6,99.2,34.5
		c15.4,75-0.8,150.2-12.7,190.5c-5.6,18.9-10.2,30.1-10.2,30.1C398.6,551.1,394.9,576.4,394.9,576.4z"/>
	<path class="st8" d="M938.8,265.1c-40.6,177.1-307.3,444.3-395,474.9c-0.1,0-0.1,0-0.1,0.1c0,0-0.1,0-0.1,0
		c-11.6,4-22,6.6-31.2,7.9c-18,2.6-31.7,0.4-42-5c-9-4.6-15.4-11.5-20-19.6c-5.5-9.7-8.5-21-10.1-32.1c-0.5-3.8-0.9-7.7-1.2-11.4
		c-0.1-0.6-0.1-1.2-0.1-1.8c-0.8-12.7,0.3-27.8,2.3-42.3c4.1-30.2,11.6-58.1,11.6-58.1c4.6-30.2,10.6-59.1,17.4-86.6
		c29.9-120,77.2-213.4,111.2-270c9.5-15.9,18-28.8,24.8-38.7c2.6-3.9,5-7.3,7.1-10.2c3.4-4.7,5.9-8.1,7.5-10.1
		c0.1-0.2,0.3-0.4,0.4-0.5l0.1-0.1c0.9-1.1,1.3-1.7,1.3-1.7l7.7,2.6c0.4,0.1,0.7,0.2,1,0.3l45.5,15.2L902.6,253L938.8,265.1z"/>
	<path class="st5" d="M284.5,204.8c-17,14.8-46,50-46,118.4c0,0,34.1,66.6,153.3-10.8c0,0-13.2-118.6-74.6-120
		C305.2,192.1,293.6,196.8,284.5,204.8z"/>
	<path class="st1" d="M381,416.6c0-24.5-15.7-44.6-46-41.2c-21,2.4-38.2,19.8-38.2,44.3c0,24.5,14.9,44.6,42.1,43.3
		C361.4,461.8,381,436.8,381,416.6z"/>
	<path class="st0" d="M372.7,416.6c0-24.5-15.7-44.6-46-41.2c-21,2.4-38.2,19.8-38.2,44.3c0,24.5,24.8,38.1,45.9,38.1
		C357,457.8,372.7,436.8,372.7,416.6z"/>
	<path class="st7" d="M364.4,407.4c-1.7-12.9-10.3-22.6-29.1-20.5c-12.6,1.4-29,22.1-28.3,41.1c0.4,11.7,6.4,21.7,17.9,25.2
		C353.4,461.6,367.6,431.4,364.4,407.4z"/>
	<path class="st9" d="M760.2,463.8c9.2-67.5-46.7-105.6-102.4-105.6s-94.8,57.5-94.8,110s32.6,89.2,88.4,89.2
		C720.7,557.4,753.2,515.9,760.2,463.8z"/>
	<path class="st0" d="M746.1,463c7.9-62.1-40-104.7-88.2-104.7S563,420,563,468.2s40.6,80.8,88.8,80.8
		C711.8,549,740,510.8,746.1,463z"/>
	<path class="st5" d="M394.9,576.4c-29.2-0.8-41.7-17.3-41.7-17.3c-15,14.5-33.3,5.7-33.3,5.7c-11,13.6-37,24.4-37,24.4
		c-0.4-24.5,21.8-50.3,21.8-50.3c-5.7-6.3-11.3-16.4-16.7-28.9c5.4,3.9,58.2,16.1,96.7-28.7c-5.6,18.9-15.8,51.8-15.8,51.8
		C398.6,551.1,394.9,576.4,394.9,576.4z"/>
	<path class="st10" d="M621.9,686.1C621.9,686.1,621.9,686.1,621.9,686.1c-0.1,0.1-0.4,0.3-0.8,0.7c-0.1,0.1-0.3,0.3-0.5,0.4
		c-0.1,0.1-0.3,0.2-0.4,0.3c-8,6.3-41.1,32-62.9,45.4c-0.1,0.1-0.3,0.2-0.5,0.3c-4.9,3-9.2,5.3-12.5,6.7c-0.1,0.1-0.3,0.1-0.4,0.2
		c0,0-0.1,0-0.1,0c-0.1,0-0.1,0,0,0.1c0.3,1.1,4,14.1,5.9,30.2c0,0.2,0,0.5,0.1,0.7c2.1,18.6,1.9,41.2-8.2,54.3c0,0,0-0.1,0-0.1
		c0.1-0.2,0-0.5-0.1-0.8c0-0.2-0.1-0.4-0.2-0.7c-0.1-0.1-0.1-0.3-0.1-0.4c-0.1-0.2-0.2-0.5-0.4-0.7c-0.1-0.3-0.3-0.5-0.4-0.8
		c-0.1-0.2-0.3-0.5-0.4-0.7c-0.2-0.3-0.4-0.6-0.5-0.9c-0.1-0.1-0.1-0.1-0.1-0.2c0-0.1-0.1-0.1-0.1-0.2c-1.1-2.5-2.5-5.7-3.9-9.1
		C530.1,798.8,524,784,524,784l-14.4-32.5l0.7-0.8c-10.2,1.4-20.7,1.1-31.4-1.6c-3.7-0.9-7.2-2.2-10.5-3.8
		c-8.1-3.8-14.9-9.6-20.1-16.4l-65,15.6c13.2-29.7,33.3-44.6,52.7-51.7c0.2-0.1,0.4-0.2,0.7-0.2c0,0-42.2-24.3-40.7-29.1
		c24-30.7,45.3-27.6,45.3-27.6c0.3-1.9,0.5-3.8,0.8-5.6c3.2-22.5,7.1-44.6,11.3-67c4.5-24.2,10.9-48.3,16.9-72.1l12.8-46.5l0.2-0.6
		l0.1-0.1l6.7-15.9c-0.4,1.3-21.8,83.9-13.4,123.1c2.1,10,5.4,20.5,10.2,31.2C504.2,621,542.4,661.6,621.9,686.1z"/>
	<path class="st9" d="M935.1,273.9c-17.7,29.8-38.3,49.5-66.4,59.9c-49.8,18.4-108.1,14-156.9-5.4c-0.3-0.1-0.6-0.2-0.9-0.4
		c-68.5-27.5-146.3,9-167.3,79.8c-6.5,21.9-9.7,44.1-8.6,65.5c1.6,32,37.1,78.1,4.1,94.9c-14.4,7.3-27.2,2.5-43.6,8.9
		c-3.3,1.3-6.2,3-8.9,5.1c-4.8-10.7-8.1-21.2-10.2-31.2c-8.4-39.2,13.1-121.8,13.4-123.1l-6.7,15.9c29.4-97.4,68.8-173.8,98.2-222.8
		c9.5-15.9,18-28.8,24.8-38.7c2.6-3.9,5-7.3,7.1-10.2c0.4-0.1,0.8-0.2,1.3-0.3c1.8-3.4,3.8-6.8,6.2-9.9c0.1-0.2,0.3-0.4,0.4-0.5
		l0.1-0.1c2.9-0.7,6,0,9,0.9c0.4,0.1,0.7,0.2,1,0.3c0.4,0.1,0.7,0.2,1,0.3c14.8,4.9,29.6,9.9,44.5,14.8
		c71.3,23.8,142.6,47.6,213.9,71.4c3,1,6.2,2.1,7.9,4.8c0.1,0.2,0.3,0.5,0.4,0.7C900.6,257.7,936.9,270.9,935.1,273.9z"/>
	<path class="st10" d="M959.2,194.6c-5.8,27.3-13.8,52.3-20.4,70.4c-12.5,34.4-43.1,58.9-79.4,63.4c-22.3,2.7-51.1,1.4-88-8
		C682,297.7,637,232.3,619.4,198.8c-6.6-12.6-5.4-27.9,3.2-39.1c21.8-28.4,61.5-65.8,107.1-95.6c10-6.5,20.2-12.7,30.6-18.3
		c56.2-30.4,116.8-45.3,161.8-17.4c28.8,17.9,41.1,48.3,44.1,82.4C968.6,137.9,965,167.4,959.2,194.6z"/>
	<path class="st11" d="M959.4,194.7c-3.8,19.5-9,38.7-15.8,57.4c-7,19.5-16,39.1-31.4,53c-22.3,20.2-54.5,25.5-84.6,24.4
		c-79.8-3-156.9-47.3-199.6-114.7c-9.2-14.5-17.9-34.5-8.7-51.1c9.1-16.5,27.4-31.8,40.9-44.7c18.4-17.6,38.3-33.7,59.4-48.1
		c19.8-13.5,45.3,6.5,36.5,28.8c-0.1,0.2-0.1,0.3-0.2,0.5c-6.9,17.2-16.3,33.5-20.3,51.6c-7.2,32.9,6.2,69,31.8,90.9
		s62,29.8,94.9,22.5s61.9-29,80.2-57.4c18.2-28.4,26-62.9,23.9-96.5C967.1,139.2,964.7,167.2,959.4,194.7z"/>
	<path class="st11" d="M477.1,551c1.8,10.8,4.8,21.3,9.2,31.4c-8.3,7.2-13.4,17.6-15.5,28.3s-1.4,21.9,0.5,32.7
		c1.1,6.1,2.6,12.2,2.6,18.4c0,6.2-1.7,12.7-6.2,17c-2.2,2.2-5.3,5.3-3.4,7.7c-7.7,1.4-15.3,2.9-23,4.3c-1.9,0.3-3.8,0.7-5.6,0.4
		c-2.1-0.3-4-1.4-5.8-2.5c-10.4-6.3-20.5-13.1-30.3-20.3c-1.2-0.9-2.4-1.9-2.8-3.3c-0.5-2.1,1.5-4.1,3.5-4.9
		c7.3-2.7,15.5,4.3,22.9,1.8c6.3-2.2,9.2-10.5,15.8-11.9c6.3-36.2,13-72.3,20.2-108.3c4-19.7,8.1-39.4,13-58.9
		c2.5-9.8,5.2-19.6,8.3-29.3c1.5-4.8,3.1-9.6,4.8-14.4c0.8-2.3,1.6-4.6,2.5-6.9c1-2.7,1.9-3.4,1.5-0.1c-0.8,6-3,12.2-4.4,18.1
		c-1.4,6-2.8,12.1-4,18.2c-2.4,12.1-4.4,24.4-5.4,36.7C474.3,520.5,474.5,535.9,477.1,551z"/>
	<path class="st12" d="M745.5,428.8c2.7,15,3.4,30.5,0.9,45.7c-0.2,1.9-0.8,3.8-1.2,5.7l-0.7,2.8c-0.2,0.9-0.4,1.9-0.8,2.8l-1.8,5.5
		c-0.3,0.9-0.6,1.8-1,2.7l-1.2,2.7c-1.4,3.6-3.4,6.9-5.3,10.3c-1,1.7-2.2,3.2-3.2,4.8l-1.7,2.4c-0.6,0.8-1.2,1.5-1.8,2.2L724,521
		l-4.2,4.1c-0.7,0.7-1.4,1.4-2.1,2l-2.3,1.8c-1.5,1.2-3,2.5-4.5,3.6l-4.8,3.2l-2.4,1.6l-2.5,1.4l-5.1,2.8c-1.7,0.8-3.5,1.6-5.3,2.4
		c-7,3.2-14.5,5.5-22.1,7c-7.6,1.4-15.4,2-23.1,1.8c-7.7-0.3-15.4-1.5-22.9-3.5c-7.5-2.1-14.7-5-21.5-8.9
		c-13.5-7.7-25-19.3-32.2-33.3c-3.6-6.9-6.2-14.4-7.8-22.1c-1.5-7.7-2-15.5-1.5-23.3c0.9-15.6,5.3-30.7,12.2-44.5
		c6.9-13.8,16.1-26.6,27.5-37c11.4-10.5,25.1-18.9,40.3-23c7.6-2.1,15.6-3,23.5-2.6c2,0.2,4,0.3,5.9,0.5l5.7,0.9
		c1.9,0.2,3.8,0.8,5.7,1.1c1.9,0.4,3.8,0.8,5.6,1.4c7.5,1.9,14.8,4.7,21.8,8.1c7,3.4,13.7,7.5,19.8,12.3c12.3,9.6,22.4,22,29.3,36.1
		c3.4,7,6.1,14.5,7.8,22.1c1.7,7.7,2.5,15.5,2.4,23.3c-0.3,15.7-4.1,31.3-11,45.2c-6.9,14-16.7,26.5-28.3,36.8
		c-11.7,10.3-25.3,18.3-39.9,23.8c-1.8,0.8-3.7,1.3-5.5,1.9l-5.6,1.7l-5.7,1.3c-1.9,0.4-3.8,0.9-5.7,1.1c-3.9,0.5-7.7,1.2-11.6,1.3
		c-2,0.1-3.9,0.3-5.9,0.3l-5.9-0.2l-2.9-0.1l-2.9-0.3l-5.8-0.7c-1.9-0.3-3.8-0.8-5.8-1.1c-1.9-0.4-3.9-0.7-5.7-1.3l-5.6-1.7
		c-0.9-0.3-1.9-0.5-2.8-0.9l-2.7-1.1l-5.4-2.2c-1.8-0.8-3.5-1.7-5.3-2.6c-7-3.4-13.5-7.9-19.8-12.5c-6-4.9-11.9-10.1-17-16
		c-10.3-11.6-18.8-25-24.3-39.6c-5.6-14.5-8.7-30.3-8.5-45.8c0-7.8,0.6-15.5,1.7-23.1c1.1-7.6,2.6-15.2,4.4-22.6
		c3.6-14.8,8.4-29.3,13.1-43.5l7.1-21.4c2.4-7.2,5-14.3,7.6-21.4c5.3-14.2,11-28.2,17.2-42c12.3-27.6,26.5-54.4,42.6-80.2
		c8-12.9,16.6-25.4,25.7-37.5c9.1-12.1,18.7-23.9,29.1-35.1c20.7-22.3,43.5-42.7,69.1-59.6c12.7-8.4,25.9-16.1,39.6-22.9
		c13.7-6.8,27.8-12.8,42.5-17.4c14.7-4.6,29.9-7.9,45.6-8.6c7.8-0.3,15.8,0.1,23.6,1.3c7.9,1.2,15.6,3.7,22.9,7.1
		c7.3,3.5,14.1,8,20,13.5c6,5.6,10.9,12.2,14.7,19.3c7.6,14.2,11,30,12.1,45.5c2.1,30.4,0.5,61.1-5.3,91.1c-3,15-6.8,29.8-12.4,44.3
		c-2.8,7.2-6.1,14.2-9.7,21c-3.7,6.8-7.8,13.4-12.4,19.6c-9.2,12.5-20.1,23.8-32.9,32.9c-12.7,9.2-27.4,15.5-42.5,19.3l-5.7,1.2
		c-1,0.2-1.9,0.4-2.9,0.6l-2.9,0.4l-5.8,0.8l-5.8,0.5l-2.9,0.2l-2.9,0.1l-5.8,0.2l-5.8-0.1c-1.9,0-3.9-0.1-5.8-0.3
		c-15.4-1.1-30.6-3.9-45.3-8.5C730,313,702.6,298,679.3,278c-2.9-2.6-5.8-5.1-8.5-7.8c-1.4-1.4-2.8-2.7-4.1-4l-3.9-4.2
		c-1.3-1.4-2.6-2.8-3.8-4.3l-3.7-4.4l-3.5-4.6l-1.8-2.3l-1.6-2.4l-3.3-4.8c-1-1.6-2-3.3-3-5c-2.1-3.3-3.7-6.8-5.5-10.2
		c-2.9-6.1-7.6-10.9-13.4-14c-11.5-6.3-27.4-3.7-35.8,6.4c-0.5,0.6-1.1,1.2-1.6,1.9l-1.3,2.1c-0.9,1.3-1.8,3-2.7,4.7l-5.5,9.9
		l-10.9,19.7c-14.4,26.3-27.9,52.9-39.4,80.5c-5.9,13.7-11.1,27.7-16.1,41.8c-2.3,7.1-4.9,14.1-7.1,21.3c-2.2,7.2-4.5,14.2-6.5,21.5
		c-2,7.2-4.2,14.4-5.9,21.6c-1.8,7.3-3.8,14.5-5.4,21.8l-2.5,10.9l-1.3,5.5l-1.1,5.4c-1.4,7.2-2.3,14.5-2.8,21.9
		c-1.9,29.4,3.5,59.3,16.7,85.7c13,26.4,34.1,48.7,59.7,63.2c6.4,3.5,13.2,6.8,20,9.8c6.8,3,13.7,5.9,20.7,8.5
		c13.9,5.3,28.2,9.8,42.6,13.7c1.4,0.4,2.2,1.8,1.8,3.1c-0.4,1.4-1.8,2.2-3.1,1.8c-29.2-7.7-57.8-17.7-84.7-32
		c-13.3-7.5-25.7-16.8-36.2-27.9c-10.6-11.1-19.5-23.7-26.4-37.4c-14-27.3-19.7-58.5-17.9-89c0.5-7.6,1.4-15.2,2.8-22.8l1.1-5.6
		l1.3-5.5l2.5-11c1.6-7.4,3.6-14.6,5.4-22c1.8-7.3,3.9-14.6,5.9-21.8c1.9-7.3,4.3-14.5,6.4-21.7c2.2-7.2,4.7-14.3,7-21.5
		c5-14.2,10.2-28.4,16.1-42.3c11.5-27.9,25.1-55,39.4-81.4l10.8-19.8l5.4-9.9c0.9-1.7,1.7-3.2,2.9-5.1l1.7-2.6
		c0.6-0.8,1.4-1.6,2-2.4c0.7-0.8,1.3-1.6,2.1-2.3l2.4-2.1l1.2-1l1.3-0.9l2.7-1.7c0.9-0.6,1.9-0.9,2.9-1.4c1-0.4,1.9-1,2.9-1.2
		c2-0.6,4-1.4,6.1-1.6c1-0.2,2.1-0.4,3.1-0.5l3.2-0.1l1.6,0c0.5,0,1.1,0.1,1.6,0.1l3.2,0.3c1,0.1,2.1,0.4,3.1,0.6
		c1,0.3,2.1,0.4,3.1,0.8c2,0.8,4,1.4,5.8,2.5c7.5,3.8,13.8,10.4,17.3,17.9c1.7,3.2,3.3,6.5,5.3,9.6l2.8,4.7l3.1,4.5l1.6,2.2l1.7,2.2
		l3.3,4.3l3.6,4.2c1.2,1.4,2.4,2.8,3.7,4.1l3.8,4c1.3,1.3,2.6,2.6,3.9,3.8c2.6,2.6,5.4,5,8.1,7.4c22.4,19,48.8,33.3,76.9,41.8
		c14,4.3,28.5,7,43.1,7.9c1.8,0.2,3.6,0.2,5.5,0.2l5.5,0.1l5.4-0.2l2.7-0.1l2.7-0.2l5.4-0.5l5.4-0.8l2.7-0.4
		c0.9-0.2,1.8-0.4,2.7-0.6l5.3-1.1c14-3.6,27.3-9.3,38.9-17.9c11.7-8.3,21.9-18.9,30.4-30.6c4.2-5.9,8.1-12.1,11.5-18.5
		c3.4-6.4,6.4-13.1,9.1-19.9c5.2-13.6,8.9-28,11.7-42.4c5.5-29,6.9-58.8,4.8-88.3c-0.6-7.2-1.6-14.3-3.4-21.2
		c-1.7-6.9-4.2-13.6-7.5-19.7c-3.3-6.2-7.5-11.7-12.5-16.4c-5.1-4.8-10.9-8.6-17.2-11.6c-12.5-6.1-26.9-7.9-41.2-7.4
		c-14.4,0.7-28.7,3.7-42.7,8.1c-14,4.4-27.6,10.2-40.8,16.7c-13.2,6.6-26.1,14-38.4,22.2c-24.6,16.3-46.9,36.1-67,57.8
		c-20.1,21.8-38,45.7-53.9,70.8c-15.8,25.2-29.9,51.5-42.2,78.7c-6.1,13.6-11.8,27.4-17.1,41.3c-2.6,7-5.2,14-7.6,21l-7.2,21.3
		c-4.8,14.2-9.5,28.3-13,42.7c-1.8,7.2-3.2,14.4-4.3,21.6c-1.1,7.2-1.7,14.5-1.7,21.7c-0.5,28.9,10.8,57.5,30,79.1
		c4.7,5.5,10.1,10.3,15.7,14.9c5.8,4.3,11.7,8.4,18.2,11.6c12.8,6.6,26.9,10.7,41.2,11.2c28.8,1.5,57.8-9.6,79.6-28.6
		c10.8-9.6,19.9-21.1,26.4-34c6.5-12.9,10-27.2,10.3-41.5c0.1-7.2-0.6-14.4-2.1-21.4c-1.5-7-3.9-13.8-7.1-20.3
		c-6.2-12.9-15.5-24.4-26.9-33.3c-5.7-4.4-11.9-8.3-18.3-11.5c-6.5-3.2-13.3-5.8-20.3-7.6c-1.7-0.5-3.5-0.9-5.3-1.3
		c-1.8-0.4-3.5-0.8-5.3-1.1l-5.4-0.8c-1.8-0.2-3.5-0.3-5.3-0.5c-7.1-0.4-14.2,0.4-21.1,2.3c-13.8,3.7-26.5,11.3-37.2,21.1
		c-10.7,9.8-19.5,21.8-26,34.8c-6.5,13-10.8,27.2-11.7,41.7c-1,14.4,1.6,29,8.2,41.8c6.5,12.8,16.9,23.5,29.4,30.7
		c6.2,3.6,13,6.4,20,8.4c7,1.9,14.2,3.1,21.5,3.4c14.5,0.6,29.2-2,42.5-8c1.7-0.7,3.4-1.4,5-2.2l4.8-2.6l2.4-1.3l2.3-1.5l4.6-3
		c1.5-1.1,2.8-2.3,4.3-3.4l2.1-1.7c0.7-0.6,1.3-1.3,2-1.9l3.9-3.8l3.5-4.1c0.6-0.7,1.2-1.4,1.7-2.1l1.6-2.2c1-1.5,2.1-2.9,3.1-4.5
		c1.7-3.2,3.7-6.3,5-9.7l1.1-2.5c0.4-0.8,0.7-1.7,1-2.5l1.7-5.2c0.3-0.9,0.6-1.7,0.7-2.6l0.6-2.7c0.4-1.8,1-3.5,1.1-5.4
		c2.5-14.4,1.9-29.3-0.6-43.9l0,0c-0.2-1.4,0.7-2.7,2.1-3C743.9,426.5,745.2,427.4,745.5,428.8z"/>
	<path class="st12" d="M460.1,543.1c-4,24.2-8.4,48.4-12,72.6c-3.6,24.2-6.5,48.5-7.2,72.8l-0.1,4.5c0,1.4,0,2.9,0.1,4.3
		c0.2,2.8,0.6,5.7,1.2,8.4c1.3,5.5,3.4,10.9,6.4,15.7c5.9,9.7,14.9,17.3,25.5,21.3c5.2,2,10.9,3.1,16.7,3.7
		c5.7,0.6,11.5,0.4,17.3-0.3c11.5-1.5,22.7-5.3,33.4-10.5l-1.4,1c0.7-0.7,1.2-0.9,1.4-1c0.2-0.1,0.1,0-0.2,0.1
		c-0.3,0.1-0.7,0.4-1.1,0.8c-0.4,0.4-0.8,0.9-1,1.4l2.9-2.5l0.1-0.1l-0.4,0.2l6.9-3.7c2.4-1.3,4.9-2.5,7.2-4c4.8-2.9,9.3-5.9,13.9-9
		c9.1-6.3,17.9-13,26.8-19.8l13.2-10.4l6.6-5.2l6.4-5.2c8.7-7.1,17.2-14.2,25.6-21.6c8.4-7.3,16.7-14.8,24.9-22.3
		c8.2-7.6,16.2-15.3,24.2-23.1c15.9-15.6,31.3-31.8,46.4-48.3c15-16.5,29.8-33.3,44.2-50.4c14.4-17.1,28.4-34.5,42-52.3
		c13.6-17.8,26.8-35.8,39.2-54.4c12.5-18.5,24.4-37.4,35-57l0,0c0.7-1.2,2.2-1.7,3.5-1c1.2,0.7,1.7,2.2,1.1,3.4
		c-20.6,40.1-45.7,77.7-72.4,113.8c-13.3,18.1-27.1,35.9-41.3,53.3c-14.1,17.5-28.7,34.7-43.6,51.5c-15,16.8-30.3,33.3-46.2,49.3
		c-15.9,15.9-32.4,31.4-49.5,46.1c-8.5,7.4-17.2,14.6-25.9,21.7c-2.2,1.7-4.3,3.5-6.7,5.3l-6.7,5.1l-13.4,10.3
		c-9,6.7-18,13.5-27.5,19.8c-4.7,3.2-9.6,6.3-14.4,9.1c-2.4,1.5-5,2.7-7.5,4.1l-3.8,2l-1.9,1l-0.9,0.5l-0.5,0.2l-0.8,0.4l-0.1,0
		l-0.3,0.1l-0.1,0.1l2.9-2.5c-0.2,0.5-0.6,1-1,1.4c-0.4,0.4-0.9,0.7-1.1,0.8c-0.3,0.1-0.4,0.2-0.2,0.1c0.1-0.1,0.6-0.3,1.4-1l-1.4,1
		c-11.4,5.4-23.7,9.5-36.6,11c-6.4,0.7-13,0.8-19.4,0.1c-6.4-0.7-12.8-2-19.1-4.5c-12.4-4.9-23-14.1-29.6-25.5
		c-3.3-5.7-5.8-11.9-7.1-18.4c-0.7-3.2-1.1-6.5-1.3-9.8c-0.1-1.6-0.1-3.3,0-4.9l0.2-4.7c1.1-24.8,4.4-49.3,8.6-73.5
		c4.2-24.3,9.2-48.3,13.7-72.4c0.3-1.4,1.6-2.3,3-2C459.4,540.4,460.3,541.7,460.1,543.1z"/>
	<path class="st12" d="M301.8,447.7c-4-3.1-7.4-6.9-9.8-11.4c-1.2-2.2-2.2-4.5-2.9-7c-0.8-2.4-1.3-4.9-1.5-7.4
		c-1.1-10,1.2-20.1,6.1-28.8c2.5-4.3,5.7-8.3,9.4-11.7c1.9-1.7,3.9-3.2,6.1-4.5c1.1-0.6,2.2-1.3,3.3-1.8l3.4-1.5
		c4.5-2.1,9.4-3.3,14.3-4.1c1.2-0.2,2.5-0.2,3.8-0.3c1.3,0,2.5-0.2,3.8-0.1c2.5,0.2,5.1,0.1,7.5,0.7c1.2,0.2,2.5,0.5,3.7,0.7
		l3.6,1.2l1.8,0.6l1.7,0.8l3.5,1.6l3.2,2l1.6,1c0.5,0.4,1,0.8,1.5,1.2l3,2.4c0.9,0.9,1.8,1.8,2.7,2.8c7.1,7.5,11.1,17.4,12.2,27.5
		c1.3,10.1-0.7,20.4-5,29.6c-4.2,9.2-10.9,17.3-19.5,23c-4.3,2.8-9,5.1-14,6.4c-5,1.4-10.1,2-15.2,2c-10.2,0-20.3-2.9-29.1-7.9
		c-8.9-4.9-16.4-12.6-21.5-21.3c-5.2-8.6-8.4-18-11.1-27c-11.2-35.8-18.5-74.1-15.6-112.4c1.4-19.1,5.5-38.3,13.3-56.1
		c3.9-8.9,8.4-17.5,13.9-25.5c5.5-8,11.9-15.7,20.1-21.9c4.1-3.1,8.7-5.7,13.7-7.4c5-1.7,10.6-2.6,16-2c5.4,0.4,10.9,2.4,15.4,5.2
		c4.6,2.8,8.4,6.3,11.8,10.1c0.8,1,1.6,1.9,2.4,2.9l2.2,2.9c1.4,1.9,2.8,3.9,4.2,5.9c2.7,4,5.2,8.1,7.5,12.3
		c4.6,8.5,8.6,17.3,11.4,26.6c2.9,9.4,4.3,19.3,3.7,29.3c-0.6,9.9-3.3,19.9-8.7,28.6c-5.5,8.5-13,15.4-21.2,20.7
		c-8.2,5.3-17.1,9.3-26.3,12.2c-18.4,5.7-38.1,7.6-57.2,3.7c-4.7-1.1-9.5-2.4-13.9-4.4c-2.3-0.9-4.4-2.2-6.6-3.3l-3.1-2
		c-0.5-0.3-1-0.7-1.5-1l-1.5-1.2c-4-3-7.3-6.8-10.1-10.9l-2-3.2c-0.6-1.1-1.1-2.2-1.6-3.4l-0.8-1.7l-0.6-1.8l-1.1-3.5
		c-0.4-1.3,0.3-2.8,1.6-3.2c1.3-0.4,2.8,0.3,3.2,1.6c0,0,0,0,0,0l0.1,0.2c2.5,8.5,7.6,16,14.7,21.2l1.3,1c0.4,0.3,0.9,0.6,1.4,0.9
		l2.8,1.7c2,0.9,3.9,2.1,6,2.8c4.1,1.8,8.5,2.8,12.8,3.8c8.8,1.6,18,1.9,27,1.1c9-0.8,18-2.7,26.6-5.6c8.6-2.8,16.8-6.7,24.3-11.7
		c7.4-4.9,13.9-11.2,18.4-18.5c4.4-7.3,6.7-16,7-24.7c0.4-8.7-1-17.6-3.7-26c-2.8-8.5-6.6-16.8-11-24.7c-2.2-3.9-4.7-7.8-7.3-11.5
		c-1.3-1.9-2.6-3.7-4-5.5l-2.1-2.7c-0.7-0.8-1.4-1.7-2.1-2.4c-5.7-6.3-12.8-11.1-20.6-11.6c-7.8-0.7-15.6,2.4-22.3,7.6
		c-6.7,5.2-12.4,12.1-17.4,19.5c-4.9,7.5-9.2,15.5-12.7,23.8c-3.6,8.3-6.2,16.9-8.3,25.7c-2.1,8.8-3.4,17.8-4.1,26.9
		c-1.5,18.1-0.5,36.5,2,54.7c1.3,9.1,3,18.1,5.1,27.1c1,4.5,2.2,8.9,3.4,13.4l3.7,13.5c2.6,8.8,5.5,17.4,9.8,24.8
		c2.2,3.8,4.7,7.2,7.7,10.2c3,3,6.3,5.7,10,7.8c7.4,4.2,15.8,6.8,24.4,6.9c8.5,0.1,17-2,24-6.6c7.1-4.6,12.9-11.3,16.6-19
		c3.7-7.7,5.6-16.5,4.6-25c-0.8-8.5-4-16.8-9.8-23.1c-0.7-0.8-1.4-1.6-2.2-2.3l-2.4-2.1c-0.4-0.3-0.8-0.7-1.2-1l-1.3-0.9l-2.7-1.7
		l-2.9-1.4l-1.4-0.7l-1.5-0.5l-3-1c-1-0.2-2.1-0.4-3.1-0.7c-2.1-0.6-4.2-0.5-6.4-0.7c-1.1-0.1-2.2,0.1-3.2,0.1
		c-1.1,0.1-2.2,0-3.2,0.2c-4.3,0.6-8.6,1.6-12.6,3.3c-8.3,3-15,8.9-19.5,16.4c-4.5,7.4-6.7,16.4-5.9,25c0.7,8.7,4.9,16.9,11.7,22.3
		l0,0c1.1,0.9,1.3,2.5,0.4,3.6C304.5,448.4,302.9,448.5,301.8,447.7z"/>
	<path class="st8" d="M603.4,440.4c-0.9,4.4-1.4,8.9-1.4,13.3c-0.3,21.6,3.7,48.3,19,65.1c8.8,9.7,21.6,13.6,34.4,12.6
		c10.2-0.8,19.9-4.3,29.1-8.7c30.4-14.4,55.3-54.6,50.9-88.6c-5.4-41.2-45.8-39.7-77.3-35.3c-14.9,2.1-31.8,6.5-42.6,17.7
		C609.2,423,605.3,431.4,603.4,440.4z"/>
	<path class="st12" d="M397.8,322.9c4.5,32.9,3.9,66.1,1.4,99c-1.4,16.5-3.6,33-6.9,49.3c-3.3,16.3-7.3,32.4-12.6,48.2
		c-2.6,7.8-5.2,15.8-8.9,23.6c-3.7,7.8-8.5,15.7-15.8,21.6c-3.6,3-7.8,5.4-12.2,7c-4.6,1.6-9.9,2.2-14.9,1.1c-5-1-9.4-3.5-13-6.5
		c-3.6-3-6.6-6.4-9.1-10c-2.5-3.6-4.7-7.3-6.7-11.1c-1-1.9-1.9-3.8-2.7-5.8l-2.5-5.7c-3.3-7.6-6.3-15.3-9.1-23.1
		c-5.7-15.5-10.8-31.1-15.9-46.7c-0.4-1.3,0.3-2.8,1.6-3.2c1.3-0.4,2.7,0.3,3.2,1.5c5.9,15.3,11.8,30.6,18,45.7
		c3.1,7.5,6.5,15,9.9,22.3l2.6,5.5c0.9,1.8,1.8,3.5,2.7,5.3c1.9,3.4,4,6.7,6.3,9.8c4.5,6.1,10.4,11,16.5,12.1c3.1,0.6,6.2,0.1,9.3-1
		c3.3-1.3,6.2-3.1,8.9-5.4c5.4-4.6,9.3-11.1,12.5-18.1c1.6-3.5,3-7.2,4.4-11c1.4-3.7,2.7-7.6,4-11.5c5.1-15.4,9.6-30.9,13.2-46.8
		c3.6-15.8,6-31.9,7.9-48c1.9-16.2,3.2-32.4,3.6-48.7c0.3-8.1,0.4-16.3,0.3-24.4c-0.2-8.1-0.6-16.3-1.2-24.4l0,0
		c-0.1-1.4,0.9-2.6,2.3-2.7C396.5,320.6,397.6,321.5,397.8,322.9z"/>
	<path class="st12" d="M681.5,413c3.8,3.6,6.9,7.5,9.9,11.7c2.9,4.2,5.4,8.7,7.4,13.7c1.9,5,2.5,10.5,2.1,16.2
		c-0.4,5.6-2.7,11.5-6.9,15.3c-1.1,1-2.7,0.9-3.7-0.2c-0.7-0.8-0.9-1.9-0.4-2.8l0.1-0.1c1.8-4,2.2-8,1.6-12.1
		c-0.3-2.1-0.8-4.1-1.4-6.2c-0.7-2.1-1.4-4.1-2-6.3c-1.2-4.3-2.9-8.6-4.7-13c-1.8-4.3-3.9-8.7-5.9-13l-0.1-0.1
		c-0.6-1.3-0.1-2.8,1.2-3.4C679.7,412.1,680.8,412.3,681.5,413z"/>
	<path class="st12" d="M656,416.3c-2.3-0.9-4.9-1.7-7.1-2c-2.2-0.3-4.1-0.1-5.8,0.5c-1.6,0.6-3.6,0.7-5.7,1.9c-1,0.5-2,1.3-3.2,1.9
		c-1,0.8-2.1,1.6-3.3,2.4l-0.3,0.2c-1.2,0.8-2.8,0.5-3.6-0.7c-0.5-0.7-0.6-1.6-0.3-2.3c0.5-1.5,1.1-3,1.8-4.5
		c0.9-1.4,1.7-2.9,2.9-4.2l1.9-1.9c0.6-0.7,1.5-1.2,2.2-1.7c0.4-0.3,0.8-0.5,1.2-0.8c0.4-0.3,0.9-0.4,1.3-0.6
		c0.9-0.3,1.8-0.8,2.9-0.8c4-0.6,8,0.3,11.2,2c0.8,0.5,1.5,0.9,2.2,1.4c0.7,0.5,1.4,1,2,1.6c1.3,1.2,2.3,2.4,3.3,4
		c0.8,1.2,0.4,2.8-0.8,3.6c-0.7,0.4-1.6,0.5-2.3,0.2L656,416.3z"/>
	<path class="st12" d="M638,481c2,1.4,4.2,2.9,6.5,4.1c2.2,1.3,4.6,2.4,6.9,3.4c4.6,2,9.4,3.3,14.2,3.9c1.2,0.2,2.4,0.4,3.5,0.5
		c1.2,0.1,2.4,0.3,3.6,0.4c2.4,0,4.8,0.3,7.3-0.1c2.5-0.1,4.9-0.8,7.4-1.2c1.3-0.2,2.5-0.7,3.7-1.1c1.3-0.4,2.5-0.8,3.8-1.1l0.3-0.1
		c1.4-0.4,2.8,0.4,3.1,1.8c0.3,1-0.1,2.1-1,2.7c-1.2,0.9-2.4,1.7-3.6,2.5c-1.2,0.8-2.4,1.7-3.8,2.3c-2.7,1.3-5.4,2.6-8.3,3.3
		c-2.9,1-5.9,1.4-9,1.8c-3.1,0.1-6.2,0.2-9.2-0.5c-6-1.3-11.7-3.8-16.6-7c-5-3.3-9.2-7.2-12.7-12.1c-0.8-1.1-0.6-2.7,0.6-3.6
		c0.9-0.6,2.1-0.6,2.9,0L638,481z"/>
	<path class="st12" d="M700.7,417.2c2.5-0.4,4.7-0.2,7,0.5c2.3,0.7,4.7,2,6.7,4.1c2,2.1,2.6,5.5,2.4,8.2c-0.1,2.8-1.3,5.1-2.8,7
		c-0.9,1.2-2.6,1.4-3.8,0.5c-0.5-0.4-0.8-0.9-0.9-1.4l-0.2-0.6c-0.5-1.8-0.9-3.4-1.6-4.3c-0.6-1.1-1.5-1.4-2-2.2
		c-0.4-0.9-1.1-2-2.2-3.1c-1-1.1-2.4-2.3-3.6-3.6l-0.5-0.5c-1-1-1.1-2.7,0-3.8C699.6,417.5,700.1,417.3,700.7,417.2z"/>
	<path class="st12" d="M670.7,662.7c4.9,5.6,9.9,11.1,14.8,16.8c4.7,5.8,9.6,11.4,14.3,17.2c9.3,11.7,18.3,23.6,27.1,35.6
		c8.8,12.1,17.2,24.4,25.4,36.9c8.2,12.5,16.3,25,23.9,37.9c7.7,12.8,14.9,25.9,21.9,39.1c3.4,6.6,6.9,13.2,10.2,19.9
		c3.3,6.7,6.6,13.4,9.8,20.1c12.9,26.9,24.7,54.3,35.2,82.3c0.5,1.3-0.2,2.8-1.5,3.3c-1.3,0.5-2.7-0.1-3.2-1.4
		c-12.1-27.1-25-53.8-38.8-80l-10.5-19.6c-3.5-6.5-7.2-13-10.8-19.4l-11-19.3l-11.1-19.2c-7.5-12.7-15-25.5-22.9-38
		c-7.8-12.6-15.9-24.9-24.2-37.2c-8.2-12.3-16.8-24.4-25.5-36.3c-4.3-6-8.9-11.9-13.3-17.8L666.8,666l0-0.1
		c-0.9-1.1-0.7-2.7,0.4-3.6C668.3,661.6,669.8,661.7,670.7,662.7z"/>
	<path class="st12" d="M402.3,673.3l-8.3-8c-0.9-0.9-1.1-2.4-0.4-3.4l0,0c2.1-3.2,4.4-6,6.8-8.7c2.5-2.7,5.1-5.3,7.9-7.7
		c5.6-4.8,12.1-8.8,19.4-11.2l2.7-0.8c0.9-0.2,1.9-0.4,2.8-0.6c1-0.2,1.9-0.4,2.9-0.5l2.9-0.2c3.8-0.3,7.8,0.1,11.6,1
		c3.8,0.9,7.7,2.4,11,4.7c3.4,2.3,6.3,5.3,8.5,8.7c4.5,6.8,6.2,15.3,4.7,23.4c-0.3,2-1,4-1.6,5.9l-1.8,5l-3.7,10L453,730.6
		c-0.6,1.6-1.9,2.7-3.4,3l-0.1,0l-64.9,16.2c-3,0.7-6-1.1-6.7-4c-0.3-1.2-0.2-2.5,0.3-3.6l0,0c2.4-5.3,5.1-10.6,8.2-15.6
		c3.2-5,6.7-9.8,10.7-14.2c7.9-8.9,17.8-16.2,28.5-21.3c10.8-5.1,22.5-8.1,34.1-9.2c5.9-0.6,11.8-0.6,17.6-0.3
		c2.9,0.2,5.8,0.4,8.8,0.8c3,0.4,5.7,0.8,8.9,1.6l0.1,0c0.1,0,0.2,0.1,0.3,0.1c1.8,0.7,3.2,1.3,4.7,2c1.5,0.7,2.9,1.5,4.3,2.2
		c2.8,1.6,5.6,3.3,8.2,5.1c5.3,3.7,10.2,7.9,14.7,12.6c4.4,4.7,8.4,9.8,11.8,15.3c3.4,5.5,6.1,11.4,8.2,17.4l-0.9-1.4
		c0.5,0.5,0.9,1.2,1.1,2c0,0.2,0.1,0.4,0.1,0.5l0,0.3l0,0l0,0.1l-0.2-1.4c2.5,7.1,4.1,14.5,4.9,21.9c0.4,3.7,0.7,7.4,0.7,11.2
		c0.1,3.6,0,7.4-0.3,11c-1.1,14.7-4.5,29.1-9.1,42.9l0,0.1c-0.4,1.1-1.4,1.7-2.4,1.7l0,0c-1.4,0-2.5-1.2-2.5-2.6
		c0-1.4,1.1-2.5,2.5-2.5l0,0l-2.4,1.8c4-13.7,6.7-27.7,7.2-41.8c0.1-3.5,0.1-7,0-10.6c-0.1-3.5-0.5-6.9-1-10.4
		c-1-6.9-2.7-13.6-5.1-20.1l-0.2-1.4l0-0.1v0c0,0,0,0,0,0l0,0.3c0,0.2,0,0.4,0.1,0.5c0.1,0.7,0.6,1.5,1,1.9l-0.9-1.4
		c-2.1-5.5-4.8-10.8-7.9-15.6c-3.2-4.9-6.9-9.4-11-13.6c-4.1-4.1-8.7-7.8-13.6-11c-2.4-1.6-4.9-3.1-7.5-4.4
		c-1.3-0.7-2.6-1.3-3.9-1.9c-1.3-0.6-2.7-1.2-3.8-1.5l0.4,0.1c-2.3-0.5-5.1-0.9-7.7-1.2c-2.7-0.3-5.3-0.5-8-0.6
		c-5.4-0.2-10.7,0-16,0.6c-5.3,0.6-10.5,1.6-15.6,3.1c-5,1.5-10,3.4-14.7,5.7c-9.5,4.6-17.9,11-25,18.8c-3.5,3.9-6.7,8.1-9.6,12.6
		c-2.9,4.5-5.3,9.3-7.6,14.1l-6.4-7.7l65.2-15.1l-3.5,3.1l15.5-39.6l3.9-9.9l2-4.9c0.5-1.5,1-2.8,1.3-4.3c1.2-5.9,0.1-12.2-3.1-17.4
		c-1.6-2.6-3.7-4.9-6.1-6.6c-2.5-1.8-5.2-2.9-8.3-3.8c-3.1-0.8-6.3-1.2-9.5-1l-2.4,0.1c-0.8,0.1-1.6,0.2-2.4,0.3
		c-0.8,0.1-1.6,0.2-2.4,0.4l-2.4,0.6c-6.3,1.8-12.2,5.1-17.5,9.3c-5.3,4.2-10.2,9.2-14.1,14.6l-0.4-3.4l8,8.3c1,1,1,2.6-0.1,3.6
		C404.8,674.3,403.3,674.3,402.3,673.3z"/>
	<path class="st12" d="M538.8,824.4c-0.1,0.4-0.1,0.6,0,0.7l0,0.1l-0.1-0.3c0,0,0,0,0-0.1c0,0-0.3-0.7-0.3-0.6l-0.4-0.8l-0.5-1
		l-0.3-0.5l-0.1-0.3c0,0-0.1-0.2-0.2-0.4c-0.1-0.2-0.1-0.4-0.2-0.5l0.1,0.2l-0.1-0.2l0.1,0.2c-2.5-5.7-5-11.4-7.4-17.1l-7.3-17.1
		c-2.5-5.7-5.1-11.3-7.6-17l-7.7-16.9c-0.5-1.1-0.3-2.4,0.4-3.3l0-0.1l17.4-22.4l8.7-11.2l2.2-2.8c0.5-0.8,1.2-1.6,1.5-2.5
		c1-1.7,1.5-3.6,1.7-5.4c0.5-3.8-0.5-7.8-2.6-10.9c-1-1.6-2.4-3-3.9-4.1c-1.5-1.2-3.2-1.8-5.2-2.5c-3.8-1.2-7.7-1.1-11.3,0.3
		c-1.8,0.7-3.4,1.7-4.8,3c-0.4,0.3-0.7,0.6-1,1c-0.3,0.3-0.6,0.7-0.9,1.1c-0.6,0.8-1,1.4-1.6,2.6l0.1-0.3
		c-10.4,21.3-23.9,41.2-40.6,58.3c-16.6,17.1-36.8,31.1-59.4,39.6c-11.3,4.3-23.1,7.2-35,8.7c-12,1.5-24.1,1.4-36,0.4
		c-11.9-1.2-23.7-3.5-35.2-6.8c-2.9-0.8-5.7-1.7-8.6-2.6l-4.2-1.4c-1.3-0.4-2.5-0.8-3.9-1.2c-5.2-1.4-10.7-2.3-16.3-2.7l4.9-8.8
		c4.3,5.6,8.3,11.7,10.9,18.8c2.6,6.8,4.2,14,4.6,21.2c0.9,14.4-2.2,29.5-10.6,41.9c-8.2,12.4-21.9,21.4-36.7,23.6
		c-14.7,2.4-30-0.8-42.5-8.7c-6.3-3.9-11.8-9.2-16-15.4c-4.2-6.1-7.2-13.1-8.5-20.6c-0.7-3.7-0.9-7.5-0.6-11.3
		c0.3-3.8,1.2-7.6,2.4-11.2c1.3-3.6,3.1-6.9,5.1-10.1c2.1-3.1,4.5-5.9,7.1-8.6c5.2-5.2,11.3-9.3,17.8-12.4
		c6.6-3.1,13.5-5.1,20.4-6.4c13.9-2.5,27.7-2.3,41.1-2l-3.9,7.2c-11.5-17.9-28-32.4-47.4-41.3c-19.3-9-41.1-12.3-62.6-11
		c-21.6,1.2-43.1,6-63.1,14.2c-20,8.2-38.8,20.1-53.2,36.1l0,0c-0.9,1.1-2.6,1.1-3.6,0.2c-1-0.9-1.1-2.5-0.2-3.6
		c14.8-17.1,34-29.8,54.6-38.7c20.6-8.9,42.7-14.1,65.2-15.7c22.4-1.7,45.6,1.4,66.5,10.8c10.4,4.6,20.2,10.8,28.9,18.2
		c8.7,7.4,16.4,16.1,22.7,25.6c1.4,2.1,0.9,5-1.3,6.4c-0.8,0.5-1.7,0.8-2.6,0.8l-0.1,0c-13.4-0.1-26.6-0.1-39.2,2.4
		c-6.3,1.3-12.3,3.1-17.9,5.8c-5.5,2.7-10.7,6.3-15,10.6c-2.1,2.2-4.1,4.5-5.7,7c-1.6,2.5-2.9,5.1-3.9,7.9
		c-1.9,5.5-2.3,11.4-1.2,17.2c1.1,5.8,3.5,11.4,7,16.3c3.5,4.8,7.8,9,13,12.2c10.3,6.3,22.9,8.9,34.8,6.9
		c11.8-1.8,22.5-8.9,29.1-18.8c6.7-9.9,9.6-22.5,8.8-34.8c-0.4-6.2-1.7-12.3-3.9-18c-2-5.6-5.4-10.9-9.2-16l0-0.1
		c-1.8-2.4-1.3-5.9,1.1-7.7c1.1-0.8,2.5-1.2,3.8-1.1c6.1,0.6,12.1,1.6,18.1,3.2c1.5,0.4,3,0.9,4.5,1.4l4.1,1.4
		c2.7,0.9,5.4,1.8,8.1,2.6c10.9,3.2,22,5.5,33.3,6.7c11.2,1.1,22.6,1.3,33.8-0.1c11.2-1.3,22.2-3.9,32.8-7.8
		c10.6-3.9,20.7-9.1,30.1-15.3c9.4-6.2,18.2-13.5,26.3-21.6c16.1-16.1,29.3-35.1,39.7-55.5l0-0.1c0-0.1,0.1-0.1,0.1-0.2
		c0.5-0.9,1.4-2.3,2.2-3.4c0.4-0.6,0.9-1.1,1.4-1.6c0.5-0.5,1-1,1.5-1.5c2.1-1.9,4.6-3.4,7.3-4.4c5.3-2.1,11.4-2.1,16.6-0.3
		c5.2,1.6,10.3,5.1,13.2,9.9c3.1,4.7,4.4,10.5,3.6,16.1c-0.4,2.8-1.2,5.5-2.6,8c-0.6,1.3-1.5,2.4-2.3,3.5l-2.2,2.8l-8.9,11.1
		l-17.8,22.1l0.4-3.4l7.4,17.1c2.4,5.7,5,11.4,7.3,17.1l7,17.3c2.3,5.8,4.7,11.5,7.1,17.2l0.1,0.2l0.1,0.2l0.1,0.2
		c0-0.1,0-0.2-0.1-0.3c0-0.1-0.1-0.2-0.1-0.1l0.1,0.3l0.3,0.5l0.6,1.1l0.3,0.6l0.4,0.8c0.2,0.4,0.1,0.1,0.2,0.5
		c0.1,0.3,0.3,0.7,0.3,1.1l-0.1-0.3c0.1,0.2,0.1,0.5,0.2,0.8c0,0.3,0.1,0.7-0.1,1.3c-0.3,1.4-1.7,2.2-3.1,1.9
		C539.3,827.1,538.5,825.8,538.8,824.4z"/>
	<path class="st12" d="M326.9,541.7c5.1,0,1.4,0,2.5,0v0v0v0.1v0.1l0,0.3l0,0.6l0,1.2c0,0.8-0.1,1.5-0.1,2.3
		c-0.1,1.5-0.3,3.1-0.6,4.6c-0.6,3-1.5,6-2.6,8.9c-1.2,2.9-2.7,5.6-4.4,8.2c-1.8,2.6-3.8,4.9-6.1,7.1c-2.3,2.2-4.8,4-7.5,5.7
		c-2.8,1.6-5.3,2.8-7.9,4.2l-15.4,8c-2.1,1.1-4.7,0.3-5.8-1.9c-0.3-0.6-0.5-1.3-0.5-2l0-0.1c0-2.2,0.1-4.1,0.3-6
		c0.2-2,0.4-3.9,0.8-5.8c0.6-3.9,1.6-7.7,2.8-11.4c2.4-7.5,5.9-14.7,10.7-21.2c9.6-12.9,24.5-22.2,40.8-24.1
		c16.2-2.1,33,2.9,45.6,13.3c6.3,5.1,11.5,11.7,14.9,19.1c3.5,7.4,5,15.6,4.9,23.6l0,0.2c0,2.3-1.9,4.2-4.3,4.2h0
		c-3.1,0-5.8-0.3-8.7-0.7c-2.8-0.4-5.6-0.9-8.4-1.6c-5.5-1.4-11-3.5-16-6.6c-2.5-1.6-4.9-3.4-7-5.5c-2.1-2.1-3.9-4.6-5.3-7.3
		c-2.9-5.3-3.9-11.4-3.7-17.1c0-1.4,1.2-2.5,2.6-2.5c1.3,0,2.4,1.1,2.5,2.4l0,0.1c0.2,5,1.4,10,4,14c2.5,4.1,6.3,7.3,10.6,9.7
		c4.3,2.4,9.2,3.9,14.2,4.9c2.5,0.5,5,0.9,7.6,1.1c2.5,0.2,5.2,0.4,7.5,0.3l-4.3,4.4c-0.2-13.6-7-26.4-17.7-34.4
		c-5.3-4.1-11.4-7-17.9-8.7c-6.4-1.8-13.2-2.3-19.8-1.5c-6.6,0.7-12.9,2.9-18.8,6.1c-5.8,3.3-11,7.6-15.2,13
		c-4.2,5.3-7.4,11.5-9.7,18c-1.2,3.3-2,6.7-2.8,10.1c-0.4,1.7-0.7,3.4-0.9,5.2c-0.2,1.7-0.4,3.5-0.5,5l-6.3-3.9l15.7-7.3
		c2.6-1.2,5.4-2.4,7.6-3.6c2.3-1.3,4.5-2.8,6.5-4.5c2-1.7,3.8-3.6,5.5-5.7c1.6-2.1,3-4.4,4.2-6.8c1.1-2.4,2-5,2.7-7.6
		c0.3-1.3,0.6-2.6,0.8-4c0.1-0.7,0.2-1.3,0.2-2l0.1-1l0-0.5l0-0.3l0-0.1l0-0.1l0,0l0,0C325.5,541.7,321.8,541.7,326.9,541.7z"/>
	<path class="st12" d="M341.5,588.8l0.3,4.1l0.2,2.1c0,0.7,0,1.4,0,2.1l-0.1,4.1c-0.1,1.4-0.3,2.7-0.5,4.1l-0.3,2.1
		c-0.1,0.7-0.3,1.3-0.4,2l-0.9,4l-1.3,3.9l-0.7,2l-0.8,1.9l-1.6,3.8l-1.9,3.7c-0.6,1.2-1.3,2.4-2.1,3.6c-0.8,1.2-1.5,2.3-2.3,3.5
		c-1.7,2.2-3.2,4.5-5.1,6.5c-0.9,1-1.8,2.1-2.7,3.1l-2.9,2.9c-1,1-2,1.9-3.1,2.8c-1.1,0.9-2.1,1.8-3.2,2.7c-2.2,1.6-4.4,3.4-6.7,4.8
		c-4.6,3.1-9.6,5.6-14.6,7.8c-10.1,4.3-20.7,7.1-31.6,8.7c-10.8,1.6-21.9,1.7-32.8,0.6c-2.7-0.4-5.5-0.6-8.2-1.1l-8.1-1.6l-8-2.2
		c-2.6-0.8-5.2-1.8-7.8-2.8c-10.3-4-20.1-9.5-28.8-16.5c-2.1-1.8-4.4-3.4-6.3-5.5l-3-2.9c-1-1-2-1.9-2.9-3l-2.8-3.2
		c-0.9-1.1-1.7-2.2-2.6-3.3c-1.8-2.2-3.3-4.5-4.8-6.8c-12.2-18.7-18.4-41.1-17.7-63.3c0.1-2.8,0.2-5.6,0.6-8.3
		c0.2-2.8,0.7-5.5,1.2-8.3c1.1-5.5,2.5-11,4.9-16.2c1-2.7,2.5-5.1,3.8-7.7c1.6-2.4,3.1-4.9,5-7.1c3.7-4.5,8-8.5,13.2-11.4
		c5.1-2.9,10.8-4.9,16.6-5.6c5.8-0.6,11.7-0.2,17.3,1.2c1.4,0.2,2.7,0.8,4.1,1.2c1.3,0.5,2.7,0.8,4,1.4c2.7,1,5.2,2.5,7.7,4
		c2.4,1.5,4.7,3.3,6.8,5.2c2.1,1.9,4.1,4,5.8,6.2c7.1,8.8,11.6,19.6,12.6,30.8c0.5,5.6,0.1,11.3-1.3,16.8c-0.7,2.7-1.7,5.4-3,8
		c-1.3,2.5-2.8,4.9-4.6,7.1c-0.9,1.1-2.5,1.3-3.6,0.4c-1.1-0.9-1.3-2.4-0.5-3.5l0,0c5.9-7.9,7.9-18.2,6.5-28
		c-1.4-9.8-5.6-19.3-12-26.7c-1.6-1.9-3.4-3.6-5.2-5.2c-1.9-1.6-3.8-3-5.9-4.2c-2.1-1.2-4.2-2.3-6.5-3.1c-1.1-0.5-2.3-0.7-3.5-1.1
		c-1.2-0.3-2.3-0.8-3.5-0.9c-4.8-1-9.6-1.2-14.2-0.6c-4.7,0.7-9.1,2.4-13,4.9c-4,2.4-7.4,5.8-10.3,9.5c-1.5,1.8-2.7,4-4,6
		c-1.1,2.2-2.3,4.3-3.1,6.6c-1.9,4.5-3,9.3-3.9,14.2c-0.4,2.5-0.8,4.9-0.9,7.5c-0.3,2.5-0.3,5-0.4,7.5c-0.1,10,1.5,20,4.1,29.7
		c1.5,4.8,3.1,9.5,5.2,14.1c2,4.6,4.4,9,7.1,13.2c10.7,16.9,26.9,30,45.5,37.6c2.4,0.9,4.7,1.9,7.1,2.6l7.3,2.2l7.4,1.6
		c2.5,0.5,5,0.8,7.5,1.2c10.1,1.3,20.3,1.2,30.5,0c10.1-1.2,20.1-3.6,29.6-7.3c4.6-1.9,9.2-4,13.5-6.8c2.2-1.2,4.2-2.8,6.3-4.2
		c1-0.8,2-1.6,3-2.4c1-0.8,2-1.6,2.9-2.5l2.8-2.6c0.9-0.9,1.7-1.8,2.6-2.7c1.8-1.8,3.3-3.8,4.9-5.8c0.7-1,1.4-2.1,2.2-3.1
		c0.7-1,1.4-2.1,2-3.2l1.9-3.3l1.6-3.4l0.8-1.7l0.7-1.8l1.3-3.5l1-3.6c0.2-0.6,0.3-1.2,0.5-1.8l0.3-1.9c0.2-1.2,0.4-2.5,0.6-3.7
		l0.2-3.8c0-0.6,0.1-1.3,0.1-1.9l-0.1-1.9l-0.1-3.8l0-0.3c-0.1-1.4,1-2.6,2.5-2.6C340.2,586.4,341.4,587.5,341.5,588.8z"/>
	<path class="st12" d="M350.4,428.2c-1.5,2.5-3.6,4.6-5.9,6.4c-2.3,1.7-4.9,2.9-7.4,4c-2.6,1-5.2,1.7-7.9,2.3
		c-1.3,0.3-2.7,0.5-4,0.7c-1.4,0.2-2.6,0.3-4.2,0.4l4.3-9.6l0.9,0.8c0.3,0.3,0.7,0.6,1.1,0.9c0.8,0.6,1.5,1.2,2.4,1.8
		c1.6,1.2,3.4,2.1,5.3,2.9c1.9,0.7,3.9,1.3,6,1.5c2.1,0.3,4.3,0.2,6.6,0.1l0.3,0c1.4-0.1,2.6,1,2.7,2.4c0.1,1.1-0.5,2-1.5,2.5
		c-2.4,1.2-5,2.2-7.8,2.6c-2.8,0.5-5.7,0.5-8.6,0.1c-2.9-0.4-5.7-1.3-8.3-2.5c-1.3-0.6-2.6-1.3-3.8-2.1c-0.6-0.4-1.2-0.9-1.8-1.3
		c-0.6-0.5-1.1-0.9-1.8-1.7l-0.1-0.1c-2.1-2.2-2.1-5.8,0.1-7.9c1.2-1.1,2.7-1.6,4.2-1.6c0.9,0,2.1,0.1,3.2,0.1c1.1,0,2.3,0,3.4-0.1
		c2.3-0.1,4.5-0.3,6.7-0.7c2.2-0.4,4.3-0.9,6.3-1.6c2-0.8,3.8-1.7,5.5-3l0.2-0.2c1.1-0.9,2.7-0.6,3.6,0.5
		C350.9,426.3,350.9,427.4,350.4,428.2z"/>
	<path class="st12" d="M312.7,406.9c0.8-1.5,1.7-2.5,3-3.6c1.2-1,2.7-1.9,4.6-2.4c1.8-0.5,4-0.5,6,0.1c0.5,0.1,1,0.3,1.5,0.6
		l0.7,0.3l0.6,0.3c0.5,0.3,1.1,0.6,1.6,0.9c2,1.3,3.6,3.3,5.2,5.1c1.6,1.9,3.2,3.8,4.6,6c0.8,1.3,0.4,3-0.9,3.8
		c-0.7,0.4-1.5,0.5-2.2,0.3c-2.5-0.7-4.8-1.5-7-2.5c-2.2-1-4.5-1.9-6.3-3.4c-0.4-0.4-0.9-0.8-1.3-1.2c-0.1-0.1-0.2-0.2-0.2-0.2
		c0,0,0-0.1,0-0.1c0-0.1-0.1-0.1-0.1-0.2c-0.3-0.3-0.5-0.6-1.1-0.8c-0.5-0.2-1.3-0.2-2.2-0.1c-0.9,0.1-1.9,0.4-2.8,0.6l-0.9,0.2
		c-1.4,0.3-2.7-0.6-3-2C312.3,408,312.4,407.4,312.7,406.9z"/>
	<path class="st12" d="M338.7,400.9c0.1-1.4,0.5-2.5,1.1-3.5c0.7-1,1.6-1.9,2.8-2.5c1.3-0.6,3,0,4.3,0.7c1.4,0.7,2.4,1.9,2.8,3.2
		c0.3,1.2-0.1,2.4-1,3l-1.7,1.3c-0.9,0.6-1.2,1.2-1.3,1.7c-0.1,0.5,0.1,1.2,0,1c-0.1-0.2-0.5-0.5-1.1-0.7c-0.5-0.3-1.4-0.4-2.3-0.8
		l-2.3-1.1C339.2,402.9,338.7,401.9,338.7,400.9z"/>
</g>
</svg>
